<?xml version="1.0" encoding="UTF-8" standalone="no"?>
<svg height="684" viewBox="0 0 592 684" width="592" xmlns="http://www.w3.org/2000/svg">
<text x="8" y="22" font-family="system-ui,sans-serif" font-size="13" fill="#dee4e3">ss01 — 52 substitutions</text>
<g data-glyph="a" fill="#6b7681" opacity="0.35" transform="translate(28.57 100.72) scale(0.055 -0.055)"><path d="M226 -13Q172 -13 132 7Q93 27 72 61Q50 95 50 138Q50 190 79 224Q108 259 164 278Q219 298 298 302L416 310L400 296V338Q400 388 365 418Q330 448 271 448Q222 448 184 429Q145 410 113 373L54 433Q98 482 150 505Q201 528 273 528Q338 528 386 504Q435 480 462 437Q488 394 488 336V120Q488 90 488 60Q488 30 488 0H404Q404 20 404 39Q404 58 404 77H398Q387 58 366 37Q346 16 312 2Q278 -13 226 -13ZM241 63Q291 63 326 84Q362 104 381 138Q400 173 400 214V255L413 238L304 231Q219 226 178 204Q138 182 138 141Q138 116 150 98Q161 81 184 72Q207 63 241 63Z"/></g>
<g data-glyph="a.ss01" fill="#03aee9" opacity="1" transform="translate(26.15 100.72) scale(0.055 -0.055)"><path d="M299 -13Q244 -13 196 6Q149 26 114 62Q80 98 60 148Q41 197 41 257Q41 317 60 366Q80 416 114 452Q149 488 196 508Q244 527 299 527Q345 527 380 514Q414 500 440 476Q466 453 482 421H487V516H570V0H487V99H482Q466 67 442 41Q417 15 382 1Q347 -13 299 -13ZM308 68Q362 68 402 93Q443 118 465 161Q487 204 487 257Q487 307 465 350Q443 394 402 420Q362 446 308 446Q252 446 212 422Q172 397 150 355Q128 313 128 257Q128 203 150 160Q172 117 212 92Q252 68 308 68Z"/></g>
<text x="44.0" y="128" text-anchor="middle" font-family="system-ui,sans-serif" font-size="6.5" fill="#6b7681">a.ss01</text>
<g data-glyph="a.rcltA11y" fill="#6b7681" opacity="0.35" transform="translate(100.24 100.72) scale(0.055 -0.055)"><path d="M230 -13Q174 -13 134 7Q93 27 72 62Q50 96 50 141Q50 218 114 258Q178 297 297 301L416 307L400 295V338Q400 388 364 418Q329 448 269 448Q222 448 184 429Q145 410 113 373L54 433Q97 482 148 505Q198 528 264 528Q334 528 384 504Q434 480 461 437Q488 394 488 336V127Q488 100 500 86Q511 72 528 70Q545 67 562 73V-4Q543 -13 520 -14Q496 -14 474 -5Q451 4 434 24Q416 44 410 77H405Q392 58 370 37Q348 16 314 2Q280 -13 230 -13ZM239 63Q290 63 326 84Q363 104 382 138Q400 173 400 214V255L413 235L304 230Q219 226 178 206Q138 185 138 142Q138 116 150 98Q161 81 184 72Q206 63 239 63Z"/></g>
<g data-glyph="a.ss01" fill="#03aee9" opacity="1" transform="translate(98.15 100.72) scale(0.055 -0.055)"><path d="M299 -13Q244 -13 196 6Q149 26 114 62Q80 98 60 148Q41 197 41 257Q41 317 60 366Q80 416 114 452Q149 488 196 508Q244 527 299 527Q345 527 380 514Q414 500 440 476Q466 453 482 421H487V516H570V0H487V99H482Q466 67 442 41Q417 15 382 1Q347 -13 299 -13ZM308 68Q362 68 402 93Q443 118 465 161Q487 204 487 257Q487 307 465 350Q443 394 402 420Q362 446 308 446Q252 446 212 422Q172 397 150 355Q128 313 128 257Q128 203 150 160Q172 117 212 92Q252 68 308 68Z"/></g>
<text x="116.0" y="128" text-anchor="middle" font-family="system-ui,sans-serif" font-size="6.5" fill="#6b7681">a.ss01</text>
<g data-glyph="aacute" fill="#6b7681" opacity="0.35" transform="translate(172.57 100.72) scale(0.055 -0.055)"><path d="M226 -13Q172 -13 132 7Q93 27 72 61Q50 95 50 138Q50 190 79 224Q108 259 164 278Q219 298 298 302L416 310L400 296V338Q400 388 365 418Q330 448 271 448Q222 448 184 429Q145 410 113 373L54 433Q98 482 150 505Q201 528 273 528Q338 528 386 504Q435 480 462 437Q488 394 488 336V120Q488 90 488 60Q488 30 488 0H404Q404 20 404 39Q404 58 404 77H398Q387 58 366 37Q346 16 312 2Q278 -13 226 -13ZM241 63Q291 63 326 84Q362 104 381 138Q400 173 400 214V255L413 238L304 231Q219 226 178 204Q138 182 138 141Q138 116 150 98Q161 81 184 72Q207 63 241 63ZM296 573H245L274 738H371Z"/></g>
<g data-glyph="aacute.ss01" fill="#03aee9" opacity="1" transform="translate(170.15 100.72) scale(0.055 -0.055)"><path d="M299 -13Q244 -13 196 6Q149 26 114 62Q80 98 60 148Q41 197 41 257Q41 317 60 366Q80 416 114 452Q149 488 196 508Q244 527 299 527Q345 527 380 514Q414 500 440 476Q466 453 482 421H487V516H570V0H487V99H482Q466 67 442 41Q417 15 382 1Q347 -13 299 -13ZM308 68Q362 68 402 93Q443 118 465 161Q487 204 487 257Q487 307 465 350Q443 394 402 420Q362 446 308 446Q252 446 212 422Q172 397 150 355Q128 313 128 257Q128 203 150 160Q172 117 212 92Q252 68 308 68ZM331 573H280L309 738H406Z"/></g>
<text x="188.0" y="128" text-anchor="middle" font-family="system-ui,sans-serif" font-size="6.5" fill="#6b7681">aacute.ss01</text>
<g data-glyph="aacute.rcltA11y" fill="#6b7681" opacity="0.35" transform="translate(244.24 100.72) scale(0.055 -0.055)"><path d="M230 -13Q174 -13 134 7Q93 27 72 62Q50 96 50 141Q50 218 114 258Q178 297 297 301L416 307L400 295V338Q400 388 364 418Q329 448 269 448Q222 448 184 429Q145 410 113 373L54 433Q97 482 148 505Q198 528 264 528Q334 528 384 504Q434 480 461 437Q488 394 488 336V127Q488 100 500 86Q511 72 528 70Q545 67 562 73V-4Q543 -13 520 -14Q496 -14 474 -5Q451 4 434 24Q416 44 410 77H405Q392 58 370 37Q348 16 314 2Q280 -13 230 -13ZM239 63Q290 63 326 84Q363 104 382 138Q400 173 400 214V255L413 235L304 230Q219 226 178 206Q138 185 138 142Q138 116 150 98Q161 81 184 72Q206 63 239 63ZM296 573H245L274 738H371Z"/></g>
<g data-glyph="aacute.ss01" fill="#03aee9" opacity="1" transform="translate(242.15 100.72) scale(0.055 -0.055)"><path d="M299 -13Q244 -13 196 6Q149 26 114 62Q80 98 60 148Q41 197 41 257Q41 317 60 366Q80 416 114 452Q149 488 196 508Q244 527 299 527Q345 527 380 514Q414 500 440 476Q466 453 482 421H487V516H570V0H487V99H482Q466 67 442 41Q417 15 382 1Q347 -13 299 -13ZM308 68Q362 68 402 93Q443 118 465 161Q487 204 487 257Q487 307 465 350Q443 394 402 420Q362 446 308 446Q252 446 212 422Q172 397 150 355Q128 313 128 257Q128 203 150 160Q172 117 212 92Q252 68 308 68ZM331 573H280L309 738H406Z"/></g>
<text x="260.0" y="128" text-anchor="middle" font-family="system-ui,sans-serif" font-size="6.5" fill="#6b7681">aacute.ss01</text>
<g data-glyph="abreve" fill="#6b7681" opacity="0.35" transform="translate(316.57 100.72) scale(0.055 -0.055)"><path d="M226 -13Q172 -13 132 7Q93 27 72 61Q50 95 50 138Q50 190 79 224Q108 259 164 278Q219 298 298 302L416 310L400 296V338Q400 388 365 418Q330 448 271 448Q222 448 184 429Q145 410 113 373L54 433Q98 482 150 505Q201 528 273 528Q338 528 386 504Q435 480 462 437Q488 394 488 336V120Q488 90 488 60Q488 30 488 0H404Q404 20 404 39Q404 58 404 77H398Q387 58 366 37Q346 16 312 2Q278 -13 226 -13ZM241 63Q291 63 326 84Q362 104 381 138Q400 173 400 214V255L413 238L304 231Q219 226 178 204Q138 182 138 141Q138 116 150 98Q161 81 184 72Q207 63 241 63ZM270 579Q229 579 196 597Q164 615 146 646Q127 678 127 718H196Q195 699 203 681Q211 663 228 650Q246 638 270 638Q298 638 314 650Q331 663 338 681Q345 699 344 718H414Q414 678 396 646Q377 615 345 597Q313 579 270 579Z"/></g>
<g data-glyph="abreve.ss01" fill="#03aee9" opacity="1" transform="translate(314.15 100.72) scale(0.055 -0.055)"><path d="M299 -13Q244 -13 196 6Q149 26 114 62Q80 98 60 148Q41 197 41 257Q41 317 60 366Q80 416 114 452Q149 488 196 508Q244 527 299 527Q345 527 380 514Q414 500 440 476Q466 453 482 421H487V516H570V0H487V99H482Q466 67 442 41Q417 15 382 1Q347 -13 299 -13ZM308 68Q362 68 402 93Q443 118 465 161Q487 204 487 257Q487 307 465 350Q443 394 402 420Q362 446 308 446Q252 446 212 422Q172 397 150 355Q128 313 128 257Q128 203 150 160Q172 117 212 92Q252 68 308 68ZM306 579Q265 579 232 597Q200 615 182 646Q163 678 163 718H232Q231 699 239 681Q247 663 264 650Q282 638 306 638Q334 638 350 650Q367 663 374 681Q381 699 380 718H450Q450 678 432 646Q413 615 381 597Q349 579 306 579Z"/></g>
<text x="332.0" y="128" text-anchor="middle" font-family="system-ui,sans-serif" font-size="6.5" fill="#6b7681">abreve.ss01</text>
<g data-glyph="abreve.rcltA11y" fill="#6b7681" opacity="0.35" transform="translate(388.24 100.72) scale(0.055 -0.055)"><path d="M230 -13Q174 -13 134 7Q93 27 72 62Q50 96 50 141Q50 218 114 258Q178 297 297 301L416 307L400 295V338Q400 388 364 418Q329 448 269 448Q222 448 184 429Q145 410 113 373L54 433Q97 482 148 505Q198 528 264 528Q334 528 384 504Q434 480 461 437Q488 394 488 336V127Q488 100 500 86Q511 72 528 70Q545 67 562 73V-4Q543 -13 520 -14Q496 -14 474 -5Q451 4 434 24Q416 44 410 77H405Q392 58 370 37Q348 16 314 2Q280 -13 230 -13ZM239 63Q290 63 326 84Q363 104 382 138Q400 173 400 214V255L413 235L304 230Q219 226 178 206Q138 185 138 142Q138 116 150 98Q161 81 184 72Q206 63 239 63ZM270 579Q229 579 196 597Q164 615 146 646Q127 678 127 718H196Q195 699 203 681Q211 663 228 650Q246 638 270 638Q298 638 314 650Q331 663 338 681Q345 699 344 718H414Q414 678 396 646Q377 615 345 597Q313 579 270 579Z"/></g>
<g data-glyph="abreve.ss01" fill="#03aee9" opacity="1" transform="translate(386.15 100.72) scale(0.055 -0.055)"><path d="M299 -13Q244 -13 196 6Q149 26 114 62Q80 98 60 148Q41 197 41 257Q41 317 60 366Q80 416 114 452Q149 488 196 508Q244 527 299 527Q345 527 380 514Q414 500 440 476Q466 453 482 421H487V516H570V0H487V99H482Q466 67 442 41Q417 15 382 1Q347 -13 299 -13ZM308 68Q362 68 402 93Q443 118 465 161Q487 204 487 257Q487 307 465 350Q443 394 402 420Q362 446 308 446Q252 446 212 422Q172 397 150 355Q128 313 128 257Q128 203 150 160Q172 117 212 92Q252 68 308 68ZM306 579Q265 579 232 597Q200 615 182 646Q163 678 163 718H232Q231 699 239 681Q247 663 264 650Q282 638 306 638Q334 638 350 650Q367 663 374 681Q381 699 380 718H450Q450 678 432 646Q413 615 381 597Q349 579 306 579Z"/></g>
<text x="404.0" y="128" text-anchor="middle" font-family="system-ui,sans-serif" font-size="6.5" fill="#6b7681">abreve.ss01</text>
<g data-glyph="acircumflex" fill="#6b7681" opacity="0.35" transform="translate(460.57 100.72) scale(0.055 -0.055)"><path d="M226 -13Q172 -13 132 7Q93 27 72 61Q50 95 50 138Q50 190 79 224Q108 259 164 278Q219 298 298 302L416 310L400 296V338Q400 388 365 418Q330 448 271 448Q222 448 184 429Q145 410 113 373L54 433Q98 482 150 505Q201 528 273 528Q338 528 386 504Q435 480 462 437Q488 394 488 336V120Q488 90 488 60Q488 30 488 0H404Q404 20 404 39Q404 58 404 77H398Q387 58 366 37Q346 16 312 2Q278 -13 226 -13ZM241 63Q291 63 326 84Q362 104 381 138Q400 173 400 214V255L413 238L304 231Q219 226 178 204Q138 182 138 141Q138 116 150 98Q161 81 184 72Q207 63 241 63ZM130 581 245 749H300L411 581H331L273 681H271L212 581Z"/></g>
<g data-glyph="acircumflex.ss01" fill="#03aee9" opacity="1" transform="translate(458.15 100.72) scale(0.055 -0.055)"><path d="M299 -13Q244 -13 196 6Q149 26 114 62Q80 98 60 148Q41 197 41 257Q41 317 60 366Q80 416 114 452Q149 488 196 508Q244 527 299 527Q345 527 380 514Q414 500 440 476Q466 453 482 421H487V516H570V0H487V99H482Q466 67 442 41Q417 15 382 1Q347 -13 299 -13ZM308 68Q362 68 402 93Q443 118 465 161Q487 204 487 257Q487 307 465 350Q443 394 402 420Q362 446 308 446Q252 446 212 422Q172 397 150 355Q128 313 128 257Q128 203 150 160Q172 117 212 92Q252 68 308 68ZM166 581 281 749H336L447 581H367L309 681H307L248 581Z"/></g>
<text x="476.0" y="128" text-anchor="middle" font-family="system-ui,sans-serif" font-size="6.5" fill="#6b7681">acircumflex.ss01</text>
<g data-glyph="acircumflex.rcltA11y" fill="#6b7681" opacity="0.35" transform="translate(532.24 100.72) scale(0.055 -0.055)"><path d="M230 -13Q174 -13 134 7Q93 27 72 62Q50 96 50 141Q50 218 114 258Q178 297 297 301L416 307L400 295V338Q400 388 364 418Q329 448 269 448Q222 448 184 429Q145 410 113 373L54 433Q97 482 148 505Q198 528 264 528Q334 528 384 504Q434 480 461 437Q488 394 488 336V127Q488 100 500 86Q511 72 528 70Q545 67 562 73V-4Q543 -13 520 -14Q496 -14 474 -5Q451 4 434 24Q416 44 410 77H405Q392 58 370 37Q348 16 314 2Q280 -13 230 -13ZM239 63Q290 63 326 84Q363 104 382 138Q400 173 400 214V255L413 235L304 230Q219 226 178 206Q138 185 138 142Q138 116 150 98Q161 81 184 72Q206 63 239 63ZM130 581 245 749H300L411 581H331L273 681H271L212 581Z"/></g>
<g data-glyph="acircumflex.ss01" fill="#03aee9" opacity="1" transform="translate(530.15 100.72) scale(0.055 -0.055)"><path d="M299 -13Q244 -13 196 6Q149 26 114 62Q80 98 60 148Q41 197 41 257Q41 317 60 366Q80 416 114 452Q149 488 196 508Q244 527 299 527Q345 527 380 514Q414 500 440 476Q466 453 482 421H487V516H570V0H487V99H482Q466 67 442 41Q417 15 382 1Q347 -13 299 -13ZM308 68Q362 68 402 93Q443 118 465 161Q487 204 487 257Q487 307 465 350Q443 394 402 420Q362 446 308 446Q252 446 212 422Q172 397 150 355Q128 313 128 257Q128 203 150 160Q172 117 212 92Q252 68 308 68ZM166 581 281 749H336L447 581H367L309 681H307L248 581Z"/></g>
<text x="548.0" y="128" text-anchor="middle" font-family="system-ui,sans-serif" font-size="6.5" fill="#6b7681">acircumflex.ss01</text>
<g data-glyph="adieresis" fill="#6b7681" opacity="0.35" transform="translate(28.57 192.72) scale(0.055 -0.055)"><path d="M226 -13Q172 -13 132 7Q93 27 72 61Q50 95 50 138Q50 190 79 224Q108 259 164 278Q219 298 298 302L416 310L400 296V338Q400 388 365 418Q330 448 271 448Q222 448 184 429Q145 410 113 373L54 433Q98 482 150 505Q201 528 273 528Q338 528 386 504Q435 480 462 437Q488 394 488 336V120Q488 90 488 60Q488 30 488 0H404Q404 20 404 39Q404 58 404 77H398Q387 58 366 37Q346 16 312 2Q278 -13 226 -13ZM241 63Q291 63 326 84Q362 104 381 138Q400 173 400 214V255L413 238L304 231Q219 226 178 204Q138 182 138 141Q138 116 150 98Q161 81 184 72Q207 63 241 63ZM198 622Q173 622 156 638Q140 655 140 678Q140 701 156 718Q173 734 198 734Q222 734 238 718Q254 701 254 678Q254 655 238 638Q222 622 198 622ZM361 622Q336 622 320 638Q303 655 303 678Q303 701 320 718Q336 734 361 734Q385 734 401 718Q417 701 417 678Q417 655 401 638Q385 622 361 622Z"/></g>
<g data-glyph="adieresis.ss01" fill="#03aee9" opacity="1" transform="translate(26.15 192.72) scale(0.055 -0.055)"><path d="M299 -13Q244 -13 196 6Q149 26 114 62Q80 98 60 148Q41 197 41 257Q41 317 60 366Q80 416 114 452Q149 488 196 508Q244 527 299 527Q345 527 380 514Q414 500 440 476Q466 453 482 421H487V516H570V0H487V99H482Q466 67 442 41Q417 15 382 1Q347 -13 299 -13ZM308 68Q362 68 402 93Q443 118 465 161Q487 204 487 257Q487 307 465 350Q443 394 402 420Q362 446 308 446Q252 446 212 422Q172 397 150 355Q128 313 128 257Q128 203 150 160Q172 117 212 92Q252 68 308 68ZM233 622Q208 622 192 638Q175 655 175 678Q175 701 192 718Q208 734 233 734Q257 734 273 718Q289 701 289 678Q289 655 273 638Q257 622 233 622ZM396 622Q371 622 354 638Q338 655 338 678Q338 701 354 718Q371 734 396 734Q420 734 436 718Q452 701 452 678Q452 655 436 638Q420 622 396 622Z"/></g>
<text x="44.0" y="220" text-anchor="middle" font-family="system-ui,sans-serif" font-size="6.5" fill="#6b7681">adieresis.ss01</text>
<g data-glyph="adieresis.rcltA11y" fill="#6b7681" opacity="0.35" transform="translate(100.24 192.72) scale(0.055 -0.055)"><path d="M230 -13Q174 -13 134 7Q93 27 72 62Q50 96 50 141Q50 218 114 258Q178 297 297 301L416 307L400 295V338Q400 388 364 418Q329 448 269 448Q222 448 184 429Q145 410 113 373L54 433Q97 482 148 505Q198 528 264 528Q334 528 384 504Q434 480 461 437Q488 394 488 336V127Q488 100 500 86Q511 72 528 70Q545 67 562 73V-4Q543 -13 520 -14Q496 -14 474 -5Q451 4 434 24Q416 44 410 77H405Q392 58 370 37Q348 16 314 2Q280 -13 230 -13ZM239 63Q290 63 326 84Q363 104 382 138Q400 173 400 214V255L413 235L304 230Q219 226 178 206Q138 185 138 142Q138 116 150 98Q161 81 184 72Q206 63 239 63ZM198 622Q173 622 156 638Q140 655 140 678Q140 701 156 718Q173 734 198 734Q222 734 238 718Q254 701 254 678Q254 655 238 638Q222 622 198 622ZM361 622Q336 622 320 638Q303 655 303 678Q303 701 320 718Q336 734 361 734Q385 734 401 718Q417 701 417 678Q417 655 401 638Q385 622 361 622Z"/></g>
<g data-glyph="adieresis.ss01" fill="#03aee9" opacity="1" transform="translate(98.15 192.72) scale(0.055 -0.055)"><path d="M299 -13Q244 -13 196 6Q149 26 114 62Q80 98 60 148Q41 197 41 257Q41 317 60 366Q80 416 114 452Q149 488 196 508Q244 527 299 527Q345 527 380 514Q414 500 440 476Q466 453 482 421H487V516H570V0H487V99H482Q466 67 442 41Q417 15 382 1Q347 -13 299 -13ZM308 68Q362 68 402 93Q443 118 465 161Q487 204 487 257Q487 307 465 350Q443 394 402 420Q362 446 308 446Q252 446 212 422Q172 397 150 355Q128 313 128 257Q128 203 150 160Q172 117 212 92Q252 68 308 68ZM233 622Q208 622 192 638Q175 655 175 678Q175 701 192 718Q208 734 233 734Q257 734 273 718Q289 701 289 678Q289 655 273 638Q257 622 233 622ZM396 622Q371 622 354 638Q338 655 338 678Q338 701 354 718Q371 734 396 734Q420 734 436 718Q452 701 452 678Q452 655 436 638Q420 622 396 622Z"/></g>
<text x="116.0" y="220" text-anchor="middle" font-family="system-ui,sans-serif" font-size="6.5" fill="#6b7681">adieresis.ss01</text>
<g data-glyph="ae" fill="#6b7681" opacity="0.35" transform="translate(161.08 192.72) scale(0.055 -0.055)"><path d="M254 -13Q196 -13 150 6Q104 24 77 60Q50 96 50 145Q50 195 76 228Q102 262 151 280Q200 297 268 301L443 312L444 235L274 226Q229 224 198 214Q168 203 153 186Q138 169 138 144Q138 108 170 88Q202 68 257 68Q305 68 344 88Q383 108 406 144Q429 181 429 230V289Q429 325 420 354Q410 383 391 404Q372 425 344 436Q315 448 277 448Q231 448 194 430Q158 412 124 374L65 435Q106 481 159 504Q212 528 276 528Q329 528 368 512Q407 497 433 472Q459 446 474 414H480Q497 445 527 471Q557 497 598 512Q640 528 693 528Q757 528 802 506Q846 483 875 448Q904 412 918 372Q933 332 936 294Q940 257 934 232H487V310H879L849 267Q851 319 831 360Q811 400 773 424Q735 448 682 448Q635 448 597 428Q559 408 537 372Q515 336 515 288V230Q515 178 540 142Q565 106 606 87Q648 68 698 68Q745 68 782 86Q820 103 848 139L910 86Q869 36 816 12Q762 -13 698 -13Q647 -13 603 2Q559 17 526 45Q493 73 473 113H467Q442 55 384 21Q327 -13 254 -13Z"/></g>
<g data-glyph="ae.ss01" fill="#03aee9" opacity="1" transform="translate(159.34 192.72) scale(0.055 -0.055)"><path d="M299 -13Q244 -13 196 6Q149 26 114 62Q80 98 60 148Q41 197 41 257Q41 337 74 398Q108 458 166 493Q225 528 299 528Q345 528 380 514Q414 501 440 478Q466 454 482 422H488V516H576V422H582Q598 454 624 478Q650 501 686 514Q722 528 766 528Q828 528 872 504Q915 480 942 444Q970 407 984 366Q998 324 1000 286Q1003 249 998 225H534V300H943L912 258Q914 315 896 357Q878 399 844 422Q809 446 760 446Q728 446 696 434Q663 423 636 400Q609 377 592 342Q576 306 576 257Q577 198 608 156Q638 114 683 92Q728 69 774 69Q813 69 848 86Q882 102 907 139L972 87Q949 55 916 32Q884 10 847 -2Q810 -13 771 -13Q729 -13 692 1Q654 15 626 40Q598 65 582 98H576V0H488V98H482Q457 49 414 18Q370 -13 299 -13ZM308 69Q362 69 402 94Q442 119 464 162Q487 204 487 257Q487 307 464 350Q442 394 402 420Q362 446 308 446Q253 446 213 422Q173 397 151 355Q129 313 129 257Q129 203 151 160Q173 118 213 94Q253 69 308 69Z"/></g>
<text x="188.0" y="220" text-anchor="middle" font-family="system-ui,sans-serif" font-size="6.5" fill="#6b7681">ae.ss01</text>
<g data-glyph="ae.rcltBase" fill="#6b7681" opacity="0.35" transform="translate(231.34 192.72) scale(0.055 -0.055)"><path d="M299 -13Q244 -13 196 6Q149 26 114 62Q80 98 60 148Q41 197 41 257Q41 337 74 398Q108 458 166 493Q225 528 299 528Q345 528 380 514Q414 501 440 478Q466 454 482 422H488V516H576V422H582Q598 454 624 478Q650 501 686 514Q722 528 766 528Q828 528 872 504Q915 480 942 444Q970 407 984 366Q998 324 1000 286Q1003 249 998 225H534V300H943L912 258Q914 315 896 357Q878 399 844 422Q809 446 760 446Q728 446 696 434Q663 423 636 400Q609 377 592 342Q576 306 576 257Q577 198 608 156Q638 114 683 92Q728 69 774 69Q813 69 848 86Q882 102 907 139L972 87Q949 55 916 32Q884 10 847 -2Q810 -13 771 -13Q729 -13 692 1Q654 15 626 40Q598 65 582 98H576V0H488V98H482Q457 49 414 18Q370 -13 299 -13ZM308 69Q362 69 402 94Q442 119 464 162Q487 204 487 257Q487 307 464 350Q442 394 402 420Q362 446 308 446Q253 446 213 422Q173 397 151 355Q129 313 129 257Q129 203 151 160Q173 118 213 94Q253 69 308 69Z"/></g>
<g data-glyph="ae.ss01" fill="#03aee9" opacity="1" transform="translate(231.34 192.72) scale(0.055 -0.055)"><path d="M299 -13Q244 -13 196 6Q149 26 114 62Q80 98 60 148Q41 197 41 257Q41 337 74 398Q108 458 166 493Q225 528 299 528Q345 528 380 514Q414 501 440 478Q466 454 482 422H488V516H576V422H582Q598 454 624 478Q650 501 686 514Q722 528 766 528Q828 528 872 504Q915 480 942 444Q970 407 984 366Q998 324 1000 286Q1003 249 998 225H534V300H943L912 258Q914 315 896 357Q878 399 844 422Q809 446 760 446Q728 446 696 434Q663 423 636 400Q609 377 592 342Q576 306 576 257Q577 198 608 156Q638 114 683 92Q728 69 774 69Q813 69 848 86Q882 102 907 139L972 87Q949 55 916 32Q884 10 847 -2Q810 -13 771 -13Q729 -13 692 1Q654 15 626 40Q598 65 582 98H576V0H488V98H482Q457 49 414 18Q370 -13 299 -13ZM308 69Q362 69 402 94Q442 119 464 162Q487 204 487 257Q487 307 464 350Q442 394 402 420Q362 446 308 446Q253 446 213 422Q173 397 151 355Q129 313 129 257Q129 203 151 160Q173 118 213 94Q253 69 308 69Z"/></g>
<text x="260.0" y="220" text-anchor="middle" font-family="system-ui,sans-serif" font-size="6.5" fill="#6b7681">ae.ss01</text>
<g data-glyph="agrave" fill="#6b7681" opacity="0.35" transform="translate(316.57 192.72) scale(0.055 -0.055)"><path d="M226 -13Q172 -13 132 7Q93 27 72 61Q50 95 50 138Q50 190 79 224Q108 259 164 278Q219 298 298 302L416 310L400 296V338Q400 388 365 418Q330 448 271 448Q222 448 184 429Q145 410 113 373L54 433Q98 482 150 505Q201 528 273 528Q338 528 386 504Q435 480 462 437Q488 394 488 336V120Q488 90 488 60Q488 30 488 0H404Q404 20 404 39Q404 58 404 77H398Q387 58 366 37Q346 16 312 2Q278 -13 226 -13ZM241 63Q291 63 326 84Q362 104 381 138Q400 173 400 214V255L413 238L304 231Q219 226 178 204Q138 182 138 141Q138 116 150 98Q161 81 184 72Q207 63 241 63ZM246 575 171 740H269L297 575Z"/></g>
<g data-glyph="agrave.ss01" fill="#03aee9" opacity="1" transform="translate(314.15 192.72) scale(0.055 -0.055)"><path d="M299 -13Q244 -13 196 6Q149 26 114 62Q80 98 60 148Q41 197 41 257Q41 317 60 366Q80 416 114 452Q149 488 196 508Q244 527 299 527Q345 527 380 514Q414 500 440 476Q466 453 482 421H487V516H570V0H487V99H482Q466 67 442 41Q417 15 382 1Q347 -13 299 -13ZM308 68Q362 68 402 93Q443 118 465 161Q487 204 487 257Q487 307 465 350Q443 394 402 420Q362 446 308 446Q252 446 212 422Q172 397 150 355Q128 313 128 257Q128 203 150 160Q172 117 212 92Q252 68 308 68ZM281 575 206 740H304L332 575Z"/></g>
<text x="332.0" y="220" text-anchor="middle" font-family="system-ui,sans-serif" font-size="6.5" fill="#6b7681">agrave.ss01</text>
<g data-glyph="agrave.rcltA11y" fill="#6b7681" opacity="0.35" transform="translate(388.24 192.72) scale(0.055 -0.055)"><path d="M230 -13Q174 -13 134 7Q93 27 72 62Q50 96 50 141Q50 218 114 258Q178 297 297 301L416 307L400 295V338Q400 388 364 418Q329 448 269 448Q222 448 184 429Q145 410 113 373L54 433Q97 482 148 505Q198 528 264 528Q334 528 384 504Q434 480 461 437Q488 394 488 336V127Q488 100 500 86Q511 72 528 70Q545 67 562 73V-4Q543 -13 520 -14Q496 -14 474 -5Q451 4 434 24Q416 44 410 77H405Q392 58 370 37Q348 16 314 2Q280 -13 230 -13ZM239 63Q290 63 326 84Q363 104 382 138Q400 173 400 214V255L413 235L304 230Q219 226 178 206Q138 185 138 142Q138 116 150 98Q161 81 184 72Q206 63 239 63ZM246 575 171 740H269L297 575Z"/></g>
<g data-glyph="agrave.ss01" fill="#03aee9" opacity="1" transform="translate(386.15 192.72) scale(0.055 -0.055)"><path d="M299 -13Q244 -13 196 6Q149 26 114 62Q80 98 60 148Q41 197 41 257Q41 317 60 366Q80 416 114 452Q149 488 196 508Q244 527 299 527Q345 527 380 514Q414 500 440 476Q466 453 482 421H487V516H570V0H487V99H482Q466 67 442 41Q417 15 382 1Q347 -13 299 -13ZM308 68Q362 68 402 93Q443 118 465 161Q487 204 487 257Q487 307 465 350Q443 394 402 420Q362 446 308 446Q252 446 212 422Q172 397 150 355Q128 313 128 257Q128 203 150 160Q172 117 212 92Q252 68 308 68ZM281 575 206 740H304L332 575Z"/></g>
<text x="404.0" y="220" text-anchor="middle" font-family="system-ui,sans-serif" font-size="6.5" fill="#6b7681">agrave.ss01</text>
<g data-glyph="amacron" fill="#6b7681" opacity="0.35" transform="translate(460.57 192.72) scale(0.055 -0.055)"><path d="M226 -13Q172 -13 132 7Q93 27 72 61Q50 95 50 138Q50 190 79 224Q108 259 164 278Q219 298 298 302L416 310L400 296V338Q400 388 365 418Q330 448 271 448Q222 448 184 429Q145 410 113 373L54 433Q98 482 150 505Q201 528 273 528Q338 528 386 504Q435 480 462 437Q488 394 488 336V120Q488 90 488 60Q488 30 488 0H404Q404 20 404 39Q404 58 404 77H398Q387 58 366 37Q346 16 312 2Q278 -13 226 -13ZM241 63Q291 63 326 84Q362 104 381 138Q400 173 400 214V255L413 238L304 231Q219 226 178 204Q138 182 138 141Q138 116 150 98Q161 81 184 72Q207 63 241 63ZM130 645V700H411V645Z"/></g>
<g data-glyph="amacron.ss01" fill="#03aee9" opacity="1" transform="translate(458.15 192.72) scale(0.055 -0.055)"><path d="M299 -13Q244 -13 196 6Q149 26 114 62Q80 98 60 148Q41 197 41 257Q41 317 60 366Q80 416 114 452Q149 488 196 508Q244 527 299 527Q345 527 380 514Q414 500 440 476Q466 453 482 421H487V516H570V0H487V99H482Q466 67 442 41Q417 15 382 1Q347 -13 299 -13ZM308 68Q362 68 402 93Q443 118 465 161Q487 204 487 257Q487 307 465 350Q443 394 402 420Q362 446 308 446Q252 446 212 422Q172 397 150 355Q128 313 128 257Q128 203 150 160Q172 117 212 92Q252 68 308 68ZM166 645V700H447V645Z"/></g>
<text x="476.0" y="220" text-anchor="middle" font-family="system-ui,sans-serif" font-size="6.5" fill="#6b7681">amacron.ss01</text>
<g data-glyph="amacron.rcltA11y" fill="#6b7681" opacity="0.35" transform="translate(532.24 192.72) scale(0.055 -0.055)"><path d="M230 -13Q174 -13 134 7Q93 27 72 62Q50 96 50 141Q50 218 114 258Q178 297 297 301L416 307L400 295V338Q400 388 364 418Q329 448 269 448Q222 448 184 429Q145 410 113 373L54 433Q97 482 148 505Q198 528 264 528Q334 528 384 504Q434 480 461 437Q488 394 488 336V127Q488 100 500 86Q511 72 528 70Q545 67 562 73V-4Q543 -13 520 -14Q496 -14 474 -5Q451 4 434 24Q416 44 410 77H405Q392 58 370 37Q348 16 314 2Q280 -13 230 -13ZM239 63Q290 63 326 84Q363 104 382 138Q400 173 400 214V255L413 235L304 230Q219 226 178 206Q138 185 138 142Q138 116 150 98Q161 81 184 72Q206 63 239 63ZM130 645V700H411V645Z"/></g>
<g data-glyph="amacron.ss01" fill="#03aee9" opacity="1" transform="translate(530.15 192.72) scale(0.055 -0.055)"><path d="M299 -13Q244 -13 196 6Q149 26 114 62Q80 98 60 148Q41 197 41 257Q41 317 60 366Q80 416 114 452Q149 488 196 508Q244 527 299 527Q345 527 380 514Q414 500 440 476Q466 453 482 421H487V516H570V0H487V99H482Q466 67 442 41Q417 15 382 1Q347 -13 299 -13ZM308 68Q362 68 402 93Q443 118 465 161Q487 204 487 257Q487 307 465 350Q443 394 402 420Q362 446 308 446Q252 446 212 422Q172 397 150 355Q128 313 128 257Q128 203 150 160Q172 117 212 92Q252 68 308 68ZM166 645V700H447V645Z"/></g>
<text x="548.0" y="220" text-anchor="middle" font-family="system-ui,sans-serif" font-size="6.5" fill="#6b7681">amacron.ss01</text>
<g data-glyph="aogonek" fill="#6b7681" opacity="0.35" transform="translate(28.57 284.72) scale(0.055 -0.055)"><path d="M226 -13Q172 -13 132 7Q93 27 72 61Q50 95 50 138Q50 190 79 224Q108 259 164 278Q219 298 298 302L416 310L400 296V338Q400 388 365 418Q330 448 271 448Q222 448 184 429Q145 410 113 373L54 433Q98 482 150 505Q201 528 273 528Q338 528 386 504Q435 480 462 437Q488 394 488 336V120Q488 90 488 60Q488 30 488 0H404Q404 20 404 39Q404 58 404 77H398Q387 58 366 37Q346 16 312 2Q278 -13 226 -13ZM241 63Q291 63 326 84Q362 104 381 138Q400 173 400 214V255L413 238L304 231Q219 226 178 204Q138 182 138 141Q138 116 150 98Q161 81 184 72Q207 63 241 63ZM454 -231Q416 -231 387 -218Q358 -204 342 -180Q327 -155 327 -123Q327 -93 345 -60Q363 -28 402 0L426 18L469 6L485 0Q468 -6 448 -19Q429 -32 415 -52Q401 -73 401 -104Q401 -135 420 -148Q439 -161 471 -161Q483 -161 494 -160Q505 -158 515 -154L532 -219Q510 -226 491 -228Q472 -231 454 -231Z"/></g>
<g data-glyph="aogonek.ss01" fill="#03aee9" opacity="1" transform="translate(26.15 284.72) scale(0.055 -0.055)"><path d="M299 -13Q244 -13 196 6Q149 26 114 62Q80 98 60 148Q41 197 41 257Q41 317 60 366Q80 416 114 452Q149 488 196 508Q244 527 299 527Q345 527 380 514Q414 500 440 476Q466 453 482 421H487V516H570V0H487V99H482Q466 67 442 41Q417 15 382 1Q347 -13 299 -13ZM308 68Q362 68 402 93Q443 118 465 161Q487 204 487 257Q487 307 465 350Q443 394 402 420Q362 446 308 446Q252 446 212 422Q172 397 150 355Q128 313 128 257Q128 203 150 160Q172 117 212 92Q252 68 308 68ZM537 -231Q499 -231 470 -218Q441 -204 426 -180Q410 -155 410 -123Q410 -93 428 -60Q446 -28 485 0L509 18L552 6L568 0Q551 -6 532 -19Q512 -32 498 -52Q484 -73 484 -104Q484 -135 503 -148Q522 -161 554 -161Q566 -161 577 -160Q588 -158 598 -154L615 -219Q593 -226 574 -228Q555 -231 537 -231Z"/></g>
<text x="44.0" y="312" text-anchor="middle" font-family="system-ui,sans-serif" font-size="6.5" fill="#6b7681">aogonek.ss01</text>
<g data-glyph="aogonek.rcltA11y" fill="#6b7681" opacity="0.35" transform="translate(100.24 284.72) scale(0.055 -0.055)"><path d="M230 -13Q174 -13 134 7Q93 27 72 62Q50 96 50 141Q50 218 114 258Q178 297 297 301L416 307L400 295V338Q400 388 364 418Q329 448 269 448Q222 448 184 429Q145 410 113 373L54 433Q97 482 148 505Q198 528 264 528Q334 528 384 504Q434 480 461 437Q488 394 488 336V127Q488 100 500 86Q511 72 528 70Q545 67 562 73V-4Q543 -13 520 -14Q496 -14 474 -5Q451 4 434 24Q416 44 410 77H405Q392 58 370 37Q348 16 314 2Q280 -13 230 -13ZM239 63Q290 63 326 84Q363 104 382 138Q400 173 400 214V255L413 235L304 230Q219 226 178 206Q138 185 138 142Q138 116 150 98Q161 81 184 72Q206 63 239 63ZM471 -232Q433 -232 404 -218Q375 -205 360 -180Q344 -156 344 -124Q344 -94 362 -62Q380 -29 419 -1L443 17L486 5L502 -1Q485 -7 466 -20Q446 -33 432 -54Q418 -74 418 -105Q418 -136 437 -149Q456 -162 488 -162Q500 -162 511 -160Q522 -159 532 -155L549 -220Q527 -227 508 -230Q489 -232 471 -232Z"/></g>
<g data-glyph="aogonek.ss01" fill="#03aee9" opacity="1" transform="translate(98.15 284.72) scale(0.055 -0.055)"><path d="M299 -13Q244 -13 196 6Q149 26 114 62Q80 98 60 148Q41 197 41 257Q41 317 60 366Q80 416 114 452Q149 488 196 508Q244 527 299 527Q345 527 380 514Q414 500 440 476Q466 453 482 421H487V516H570V0H487V99H482Q466 67 442 41Q417 15 382 1Q347 -13 299 -13ZM308 68Q362 68 402 93Q443 118 465 161Q487 204 487 257Q487 307 465 350Q443 394 402 420Q362 446 308 446Q252 446 212 422Q172 397 150 355Q128 313 128 257Q128 203 150 160Q172 117 212 92Q252 68 308 68ZM537 -231Q499 -231 470 -218Q441 -204 426 -180Q410 -155 410 -123Q410 -93 428 -60Q446 -28 485 0L509 18L552 6L568 0Q551 -6 532 -19Q512 -32 498 -52Q484 -73 484 -104Q484 -135 503 -148Q522 -161 554 -161Q566 -161 577 -160Q588 -158 598 -154L615 -219Q593 -226 574 -228Q555 -231 537 -231Z"/></g>
<text x="116.0" y="312" text-anchor="middle" font-family="system-ui,sans-serif" font-size="6.5" fill="#6b7681">aogonek.ss01</text>
<g data-glyph="aring" fill="#6b7681" opacity="0.35" transform="translate(172.57 284.72) scale(0.055 -0.055)"><path d="M226 -13Q172 -13 132 7Q93 27 72 61Q50 95 50 138Q50 190 79 224Q108 259 164 278Q219 298 298 302L416 310L400 296V338Q400 388 365 418Q330 448 271 448Q222 448 184 429Q145 410 113 373L54 433Q98 482 150 505Q201 528 273 528Q338 528 386 504Q435 480 462 437Q488 394 488 336V120Q488 90 488 60Q488 30 488 0H404Q404 20 404 39Q404 58 404 77H398Q387 58 366 37Q346 16 312 2Q278 -13 226 -13ZM241 63Q291 63 326 84Q362 104 381 138Q400 173 400 214V255L413 238L304 231Q219 226 178 204Q138 182 138 141Q138 116 150 98Q161 81 184 72Q207 63 241 63ZM271 572Q241 572 215 587Q189 602 174 628Q158 653 158 683Q158 714 174 738Q189 763 215 778Q241 793 271 793Q302 793 328 778Q353 763 368 738Q384 714 384 683Q384 653 368 628Q353 602 328 587Q302 572 271 572ZM271 623Q297 623 312 640Q328 658 328 683Q328 709 312 725Q297 741 271 741Q246 741 230 725Q214 709 214 683Q214 658 230 640Q246 623 271 623Z"/></g>
<g data-glyph="aring.ss01" fill="#03aee9" opacity="1" transform="translate(170.15 284.72) scale(0.055 -0.055)"><path d="M299 -13Q244 -13 196 6Q149 26 114 62Q80 98 60 148Q41 197 41 257Q41 317 60 366Q80 416 114 452Q149 488 196 508Q244 527 299 527Q345 527 380 514Q414 500 440 476Q466 453 482 421H487V516H570V0H487V99H482Q466 67 442 41Q417 15 382 1Q347 -13 299 -13ZM308 68Q362 68 402 93Q443 118 465 161Q487 204 487 257Q487 307 465 350Q443 394 402 420Q362 446 308 446Q252 446 212 422Q172 397 150 355Q128 313 128 257Q128 203 150 160Q172 117 212 92Q252 68 308 68ZM306 572Q276 572 250 587Q224 602 208 628Q193 653 193 683Q193 714 208 738Q224 763 250 778Q276 793 306 793Q337 793 362 778Q388 763 404 738Q419 714 419 683Q419 653 404 628Q388 602 362 587Q337 572 306 572ZM306 623Q332 623 348 640Q363 658 363 683Q363 709 348 725Q332 741 306 741Q281 741 265 725Q249 709 249 683Q249 658 265 640Q281 623 306 623Z"/></g>
<text x="188.0" y="312" text-anchor="middle" font-family="system-ui,sans-serif" font-size="6.5" fill="#6b7681">aring.ss01</text>
<g data-glyph="aring.rcltA11y" fill="#6b7681" opacity="0.35" transform="translate(244.24 284.72) scale(0.055 -0.055)"><path d="M230 -13Q174 -13 134 7Q93 27 72 62Q50 96 50 141Q50 218 114 258Q178 297 297 301L416 307L400 295V338Q400 388 364 418Q329 448 269 448Q222 448 184 429Q145 410 113 373L54 433Q97 482 148 505Q198 528 264 528Q334 528 384 504Q434 480 461 437Q488 394 488 336V127Q488 100 500 86Q511 72 528 70Q545 67 562 73V-4Q543 -13 520 -14Q496 -14 474 -5Q451 4 434 24Q416 44 410 77H405Q392 58 370 37Q348 16 314 2Q280 -13 230 -13ZM239 63Q290 63 326 84Q363 104 382 138Q400 173 400 214V255L413 235L304 230Q219 226 178 206Q138 185 138 142Q138 116 150 98Q161 81 184 72Q206 63 239 63ZM271 572Q241 572 215 587Q189 602 174 628Q158 653 158 683Q158 714 174 738Q189 763 215 778Q241 793 271 793Q302 793 328 778Q353 763 368 738Q384 714 384 683Q384 653 368 628Q353 602 328 587Q302 572 271 572ZM271 623Q297 623 312 640Q328 658 328 683Q328 709 312 725Q297 741 271 741Q246 741 230 725Q214 709 214 683Q214 658 230 640Q246 623 271 623Z"/></g>
<g data-glyph="aring.ss01" fill="#03aee9" opacity="1" transform="translate(242.15 284.72) scale(0.055 -0.055)"><path d="M299 -13Q244 -13 196 6Q149 26 114 62Q80 98 60 148Q41 197 41 257Q41 317 60 366Q80 416 114 452Q149 488 196 508Q244 527 299 527Q345 527 380 514Q414 500 440 476Q466 453 482 421H487V516H570V0H487V99H482Q466 67 442 41Q417 15 382 1Q347 -13 299 -13ZM308 68Q362 68 402 93Q443 118 465 161Q487 204 487 257Q487 307 465 350Q443 394 402 420Q362 446 308 446Q252 446 212 422Q172 397 150 355Q128 313 128 257Q128 203 150 160Q172 117 212 92Q252 68 308 68ZM306 572Q276 572 250 587Q224 602 208 628Q193 653 193 683Q193 714 208 738Q224 763 250 778Q276 793 306 793Q337 793 362 778Q388 763 404 738Q419 714 419 683Q419 653 404 628Q388 602 362 587Q337 572 306 572ZM306 623Q332 623 348 640Q363 658 363 683Q363 709 348 725Q332 741 306 741Q281 741 265 725Q249 709 249 683Q249 658 265 640Q281 623 306 623Z"/></g>
<text x="260.0" y="312" text-anchor="middle" font-family="system-ui,sans-serif" font-size="6.5" fill="#6b7681">aring.ss01</text>
<g data-glyph="atilde" fill="#6b7681" opacity="0.35" transform="translate(316.57 284.72) scale(0.055 -0.055)"><path d="M226 -13Q172 -13 132 7Q93 27 72 61Q50 95 50 138Q50 190 79 224Q108 259 164 278Q219 298 298 302L416 310L400 296V338Q400 388 365 418Q330 448 271 448Q222 448 184 429Q145 410 113 373L54 433Q98 482 150 505Q201 528 273 528Q338 528 386 504Q435 480 462 437Q488 394 488 336V120Q488 90 488 60Q488 30 488 0H404Q404 20 404 39Q404 58 404 77H398Q387 58 366 37Q346 16 312 2Q278 -13 226 -13ZM241 63Q291 63 326 84Q362 104 381 138Q400 173 400 214V255L413 238L304 231Q219 226 178 204Q138 182 138 141Q138 116 150 98Q161 81 184 72Q207 63 241 63ZM345 606Q311 606 292 616Q272 627 260 642Q248 656 236 666Q225 677 208 677Q189 677 177 665Q165 653 165 625H114Q114 679 140 709Q165 739 207 739Q240 739 260 728Q279 718 292 704Q304 689 316 678Q327 668 345 668Q362 668 372 681Q383 694 383 720H438Q438 666 412 636Q386 606 345 606Z"/></g>
<g data-glyph="atilde.ss01" fill="#03aee9" opacity="1" transform="translate(314.15 284.72) scale(0.055 -0.055)"><path d="M299 -13Q244 -13 196 6Q149 26 114 62Q80 98 60 148Q41 197 41 257Q41 317 60 366Q80 416 114 452Q149 488 196 508Q244 527 299 527Q345 527 380 514Q414 500 440 476Q466 453 482 421H487V516H570V0H487V99H482Q466 67 442 41Q417 15 382 1Q347 -13 299 -13ZM308 68Q362 68 402 93Q443 118 465 161Q487 204 487 257Q487 307 465 350Q443 394 402 420Q362 446 308 446Q252 446 212 422Q172 397 150 355Q128 313 128 257Q128 203 150 160Q172 117 212 92Q252 68 308 68ZM381 606Q347 606 328 616Q308 627 296 642Q284 656 272 666Q261 677 244 677Q225 677 213 665Q201 653 201 625H150Q150 679 176 709Q201 739 243 739Q276 739 296 728Q315 718 328 704Q340 689 352 678Q363 668 381 668Q398 668 408 681Q419 694 419 720H474Q474 666 448 636Q422 606 381 606Z"/></g>
<text x="332.0" y="312" text-anchor="middle" font-family="system-ui,sans-serif" font-size="6.5" fill="#6b7681">atilde.ss01</text>
<g data-glyph="atilde.rcltA11y" fill="#6b7681" opacity="0.35" transform="translate(388.24 284.72) scale(0.055 -0.055)"><path d="M230 -13Q174 -13 134 7Q93 27 72 62Q50 96 50 141Q50 218 114 258Q178 297 297 301L416 307L400 295V338Q400 388 364 418Q329 448 269 448Q222 448 184 429Q145 410 113 373L54 433Q97 482 148 505Q198 528 264 528Q334 528 384 504Q434 480 461 437Q488 394 488 336V127Q488 100 500 86Q511 72 528 70Q545 67 562 73V-4Q543 -13 520 -14Q496 -14 474 -5Q451 4 434 24Q416 44 410 77H405Q392 58 370 37Q348 16 314 2Q280 -13 230 -13ZM239 63Q290 63 326 84Q363 104 382 138Q400 173 400 214V255L413 235L304 230Q219 226 178 206Q138 185 138 142Q138 116 150 98Q161 81 184 72Q206 63 239 63ZM345 606Q311 606 292 616Q272 627 260 642Q248 656 236 666Q225 677 208 677Q189 677 177 665Q165 653 165 625H114Q114 679 140 709Q165 739 207 739Q240 739 260 728Q279 718 292 704Q304 689 316 678Q327 668 345 668Q362 668 372 681Q383 694 383 720H438Q438 666 412 636Q386 606 345 606Z"/></g>
<g data-glyph="atilde.ss01" fill="#03aee9" opacity="1" transform="translate(386.15 284.72) scale(0.055 -0.055)"><path d="M299 -13Q244 -13 196 6Q149 26 114 62Q80 98 60 148Q41 197 41 257Q41 317 60 366Q80 416 114 452Q149 488 196 508Q244 527 299 527Q345 527 380 514Q414 500 440 476Q466 453 482 421H487V516H570V0H487V99H482Q466 67 442 41Q417 15 382 1Q347 -13 299 -13ZM308 68Q362 68 402 93Q443 118 465 161Q487 204 487 257Q487 307 465 350Q443 394 402 420Q362 446 308 446Q252 446 212 422Q172 397 150 355Q128 313 128 257Q128 203 150 160Q172 117 212 92Q252 68 308 68ZM381 606Q347 606 328 616Q308 627 296 642Q284 656 272 666Q261 677 244 677Q225 677 213 665Q201 653 201 625H150Q150 679 176 709Q201 739 243 739Q276 739 296 728Q315 718 328 704Q340 689 352 678Q363 668 381 668Q398 668 408 681Q419 694 419 720H474Q474 666 448 636Q422 606 381 606Z"/></g>
<text x="404.0" y="312" text-anchor="middle" font-family="system-ui,sans-serif" font-size="6.5" fill="#6b7681">atilde.ss01</text>
<g data-glyph="ordfeminine" fill="#6b7681" opacity="0.35" transform="translate(461.98 284.72) scale(0.055 -0.055)"><path d="M202 326Q163 326 132 342Q100 357 81 384Q62 410 62 443Q62 502 114 534Q166 566 258 570L354 575L341 566V601Q341 629 326 647Q311 665 288 674Q264 684 238 684Q199 684 168 670Q137 655 111 626L65 674Q100 712 142 730Q184 748 242 748Q283 748 322 731Q361 714 386 680Q411 647 411 599V414Q411 390 412 372Q414 353 417 336H351Q348 350 346 366Q345 381 345 397H338Q329 383 312 366Q296 349 270 338Q244 326 202 326ZM215 384Q273 384 307 420Q341 455 341 502V533L352 521L264 515Q221 511 191 504Q161 496 146 482Q131 468 131 446Q131 415 153 400Q175 384 215 384ZM80 208V269H411V208Z"/></g>
<g data-glyph="ordfeminine.ss01" fill="#03aee9" opacity="1" transform="translate(460.19 284.72) scale(0.055 -0.055)"><path d="M261 325Q204 325 158 352Q113 378 87 426Q61 473 61 535Q61 597 87 644Q113 691 158 718Q204 746 261 746Q314 746 348 722Q382 699 401 663H406V734H472V335H406V410H402Q383 373 350 349Q316 325 261 325ZM268 388Q310 388 341 408Q372 428 389 462Q406 495 406 535Q406 573 389 607Q372 641 341 662Q310 683 268 683Q205 683 168 642Q130 600 130 536Q130 494 147 460Q164 427 195 408Q226 388 268 388ZM87 208V268H472V208Z"/></g>
<text x="476.0" y="312" text-anchor="middle" font-family="system-ui,sans-serif" font-size="6.5" fill="#6b7681">ordfeminine.ss01</text>
<g data-glyph="ordfeminine.rcltBase" fill="#6b7681" opacity="0.35" transform="translate(532.19 284.72) scale(0.055 -0.055)"><path d="M261 325Q204 325 158 352Q113 378 87 426Q61 473 61 535Q61 597 87 644Q113 691 158 718Q204 746 261 746Q314 746 348 722Q382 699 401 663H406V734H472V335H406V410H402Q383 373 350 349Q316 325 261 325ZM268 388Q310 388 341 408Q372 428 389 462Q406 495 406 535Q406 573 389 607Q372 641 341 662Q310 683 268 683Q205 683 168 642Q130 600 130 536Q130 494 147 460Q164 427 195 408Q226 388 268 388ZM87 208V268H472V208Z"/></g>
<g data-glyph="ordfeminine.ss01" fill="#03aee9" opacity="1" transform="translate(532.19 284.72) scale(0.055 -0.055)"><path d="M261 325Q204 325 158 352Q113 378 87 426Q61 473 61 535Q61 597 87 644Q113 691 158 718Q204 746 261 746Q314 746 348 722Q382 699 401 663H406V734H472V335H406V410H402Q383 373 350 349Q316 325 261 325ZM268 388Q310 388 341 408Q372 428 389 462Q406 495 406 535Q406 573 389 607Q372 641 341 662Q310 683 268 683Q205 683 168 642Q130 600 130 536Q130 494 147 460Q164 427 195 408Q226 388 268 388ZM87 208V268H472V208Z"/></g>
<text x="548.0" y="312" text-anchor="middle" font-family="system-ui,sans-serif" font-size="6.5" fill="#6b7681">ordfeminine.ss01</text>
<g data-glyph="uni01E3" fill="#6b7681" opacity="0.35" transform="translate(17.08 376.72) scale(0.055 -0.055)"><path d="M254 -13Q196 -13 150 6Q104 24 77 60Q50 96 50 145Q50 195 76 228Q102 262 151 280Q200 297 268 301L443 312L444 235L274 226Q229 224 198 214Q168 203 153 186Q138 169 138 144Q138 108 170 88Q202 68 257 68Q305 68 344 88Q383 108 406 144Q429 181 429 230V289Q429 325 420 354Q410 383 391 404Q372 425 344 436Q315 448 277 448Q231 448 194 430Q158 412 124 374L65 435Q106 481 159 504Q212 528 276 528Q329 528 368 512Q407 497 433 472Q459 446 474 414H480Q497 445 527 471Q557 497 598 512Q640 528 693 528Q757 528 802 506Q846 483 875 448Q904 412 918 372Q933 332 936 294Q940 257 934 232H487V310H879L849 267Q851 319 831 360Q811 400 773 424Q735 448 682 448Q635 448 597 428Q559 408 537 372Q515 336 515 288V230Q515 178 540 142Q565 106 606 87Q648 68 698 68Q745 68 782 86Q820 103 848 139L910 86Q869 36 816 12Q762 -13 698 -13Q647 -13 603 2Q559 17 526 45Q493 73 473 113H467Q442 55 384 21Q327 -13 254 -13ZM335 645V700H616V645Z"/></g>
<g data-glyph="uni01E3.ss01" fill="#03aee9" opacity="1" transform="translate(15.34 376.72) scale(0.055 -0.055)"><path d="M299 -13Q244 -13 196 6Q149 26 114 62Q80 98 60 148Q41 197 41 257Q41 337 74 398Q108 458 166 493Q225 528 299 528Q345 528 380 514Q414 501 440 478Q466 454 482 422H488V516H576V422H582Q598 454 624 478Q650 501 686 514Q722 528 766 528Q828 528 872 504Q915 480 942 444Q970 407 984 366Q998 324 1000 286Q1003 249 998 225H534V300H943L912 258Q914 315 896 357Q878 399 844 422Q809 446 760 446Q728 446 696 434Q663 423 636 400Q609 377 592 342Q576 306 576 257Q577 198 608 156Q638 114 683 92Q728 69 774 69Q813 69 848 86Q882 102 907 139L972 87Q949 55 916 32Q884 10 847 -2Q810 -13 771 -13Q729 -13 692 1Q654 15 626 40Q598 65 582 98H576V0H488V98H482Q457 49 414 18Q370 -13 299 -13ZM308 69Q362 69 402 94Q442 119 464 162Q487 204 487 257Q487 307 464 350Q442 394 402 420Q362 446 308 446Q253 446 213 422Q173 397 151 355Q129 313 129 257Q129 203 151 160Q173 118 213 94Q253 69 308 69ZM391 645V700H672V645Z"/></g>
<text x="44.0" y="404" text-anchor="middle" font-family="system-ui,sans-serif" font-size="6.5" fill="#6b7681">uni01E3.ss01</text>
<g data-glyph="uni01E3.rcltBase" fill="#6b7681" opacity="0.35" transform="translate(87.34 376.72) scale(0.055 -0.055)"><path d="M299 -13Q244 -13 196 6Q149 26 114 62Q80 98 60 148Q41 197 41 257Q41 337 74 398Q108 458 166 493Q225 528 299 528Q345 528 380 514Q414 501 440 478Q466 454 482 422H488V516H576V422H582Q598 454 624 478Q650 501 686 514Q722 528 766 528Q828 528 872 504Q915 480 942 444Q970 407 984 366Q998 324 1000 286Q1003 249 998 225H534V300H943L912 258Q914 315 896 357Q878 399 844 422Q809 446 760 446Q728 446 696 434Q663 423 636 400Q609 377 592 342Q576 306 576 257Q577 198 608 156Q638 114 683 92Q728 69 774 69Q813 69 848 86Q882 102 907 139L972 87Q949 55 916 32Q884 10 847 -2Q810 -13 771 -13Q729 -13 692 1Q654 15 626 40Q598 65 582 98H576V0H488V98H482Q457 49 414 18Q370 -13 299 -13ZM308 69Q362 69 402 94Q442 119 464 162Q487 204 487 257Q487 307 464 350Q442 394 402 420Q362 446 308 446Q253 446 213 422Q173 397 151 355Q129 313 129 257Q129 203 151 160Q173 118 213 94Q253 69 308 69ZM391 645V700H672V645Z"/></g>
<g data-glyph="uni01E3.ss01" fill="#03aee9" opacity="1" transform="translate(87.34 376.72) scale(0.055 -0.055)"><path d="M299 -13Q244 -13 196 6Q149 26 114 62Q80 98 60 148Q41 197 41 257Q41 337 74 398Q108 458 166 493Q225 528 299 528Q345 528 380 514Q414 501 440 478Q466 454 482 422H488V516H576V422H582Q598 454 624 478Q650 501 686 514Q722 528 766 528Q828 528 872 504Q915 480 942 444Q970 407 984 366Q998 324 1000 286Q1003 249 998 225H534V300H943L912 258Q914 315 896 357Q878 399 844 422Q809 446 760 446Q728 446 696 434Q663 423 636 400Q609 377 592 342Q576 306 576 257Q577 198 608 156Q638 114 683 92Q728 69 774 69Q813 69 848 86Q882 102 907 139L972 87Q949 55 916 32Q884 10 847 -2Q810 -13 771 -13Q729 -13 692 1Q654 15 626 40Q598 65 582 98H576V0H488V98H482Q457 49 414 18Q370 -13 299 -13ZM308 69Q362 69 402 94Q442 119 464 162Q487 204 487 257Q487 307 464 350Q442 394 402 420Q362 446 308 446Q253 446 213 422Q173 397 151 355Q129 313 129 257Q129 203 151 160Q173 118 213 94Q253 69 308 69ZM391 645V700H672V645Z"/></g>
<text x="116.0" y="404" text-anchor="middle" font-family="system-ui,sans-serif" font-size="6.5" fill="#6b7681">uni01E3.ss01</text>
<g data-glyph="uni0203" fill="#6b7681" opacity="0.35" transform="translate(172.57 376.72) scale(0.055 -0.055)"><path d="M226 -13Q172 -13 132 7Q93 27 72 61Q50 95 50 138Q50 190 79 224Q108 259 164 278Q219 298 298 302L416 310L400 296V338Q400 388 365 418Q330 448 271 448Q222 448 184 429Q145 410 113 373L54 433Q98 482 150 505Q201 528 273 528Q338 528 386 504Q435 480 462 437Q488 394 488 336V120Q488 90 488 60Q488 30 488 0H404Q404 20 404 39Q404 58 404 77H398Q387 58 366 37Q346 16 312 2Q278 -13 226 -13ZM241 63Q291 63 326 84Q362 104 381 138Q400 173 400 214V255L413 238L304 231Q219 226 178 204Q138 182 138 141Q138 116 150 98Q161 81 184 72Q207 63 241 63ZM127 580Q127 642 167 680Q207 719 270 719Q334 719 374 680Q414 642 414 580H344Q346 609 328 634Q309 660 270 660Q244 660 227 648Q210 636 202 618Q195 600 196 580Z"/></g>
<g data-glyph="uni0203.ss01" fill="#03aee9" opacity="1" transform="translate(170.15 376.72) scale(0.055 -0.055)"><path d="M299 -13Q244 -13 196 6Q149 26 114 62Q80 98 60 148Q41 197 41 257Q41 317 60 366Q80 416 114 452Q149 488 196 508Q244 527 299 527Q345 527 380 514Q414 500 440 476Q466 453 482 421H487V516H570V0H487V99H482Q466 67 442 41Q417 15 382 1Q347 -13 299 -13ZM308 68Q362 68 402 93Q443 118 465 161Q487 204 487 257Q487 307 465 350Q443 394 402 420Q362 446 308 446Q252 446 212 422Q172 397 150 355Q128 313 128 257Q128 203 150 160Q172 117 212 92Q252 68 308 68ZM163 580Q163 642 203 680Q243 719 306 719Q370 719 410 680Q450 642 450 580H380Q382 609 364 634Q345 660 306 660Q280 660 263 648Q246 636 238 618Q231 600 232 580Z"/></g>
<text x="188.0" y="404" text-anchor="middle" font-family="system-ui,sans-serif" font-size="6.5" fill="#6b7681">uni0203.ss01</text>
<g data-glyph="uni0203.rcltA11y" fill="#6b7681" opacity="0.35" transform="translate(244.24 376.72) scale(0.055 -0.055)"><path d="M230 -13Q174 -13 134 7Q93 27 72 62Q50 96 50 141Q50 218 114 258Q178 297 297 301L416 307L400 295V338Q400 388 364 418Q329 448 269 448Q222 448 184 429Q145 410 113 373L54 433Q97 482 148 505Q198 528 264 528Q334 528 384 504Q434 480 461 437Q488 394 488 336V127Q488 100 500 86Q511 72 528 70Q545 67 562 73V-4Q543 -13 520 -14Q496 -14 474 -5Q451 4 434 24Q416 44 410 77H405Q392 58 370 37Q348 16 314 2Q280 -13 230 -13ZM239 63Q290 63 326 84Q363 104 382 138Q400 173 400 214V255L413 235L304 230Q219 226 178 206Q138 185 138 142Q138 116 150 98Q161 81 184 72Q206 63 239 63ZM127 580Q127 642 167 680Q207 719 270 719Q334 719 374 680Q414 642 414 580H344Q346 609 328 634Q309 660 270 660Q244 660 227 648Q210 636 202 618Q195 600 196 580Z"/></g>
<g data-glyph="uni0203.ss01" fill="#03aee9" opacity="1" transform="translate(242.15 376.72) scale(0.055 -0.055)"><path d="M299 -13Q244 -13 196 6Q149 26 114 62Q80 98 60 148Q41 197 41 257Q41 317 60 366Q80 416 114 452Q149 488 196 508Q244 527 299 527Q345 527 380 514Q414 500 440 476Q466 453 482 421H487V516H570V0H487V99H482Q466 67 442 41Q417 15 382 1Q347 -13 299 -13ZM308 68Q362 68 402 93Q443 118 465 161Q487 204 487 257Q487 307 465 350Q443 394 402 420Q362 446 308 446Q252 446 212 422Q172 397 150 355Q128 313 128 257Q128 203 150 160Q172 117 212 92Q252 68 308 68ZM163 580Q163 642 203 680Q243 719 306 719Q370 719 410 680Q450 642 450 580H380Q382 609 364 634Q345 660 306 660Q280 660 263 648Q246 636 238 618Q231 600 232 580Z"/></g>
<text x="260.0" y="404" text-anchor="middle" font-family="system-ui,sans-serif" font-size="6.5" fill="#6b7681">uni0203.ss01</text>
<g data-glyph="uni1EA1" fill="#6b7681" opacity="0.35" transform="translate(316.57 376.72) scale(0.055 -0.055)"><path d="M226 -13Q172 -13 132 7Q93 27 72 61Q50 95 50 138Q50 190 79 224Q108 259 164 278Q219 298 298 302L416 310L400 296V338Q400 388 365 418Q330 448 271 448Q222 448 184 429Q145 410 113 373L54 433Q98 482 150 505Q201 528 273 528Q338 528 386 504Q435 480 462 437Q488 394 488 336V120Q488 90 488 60Q488 30 488 0H404Q404 20 404 39Q404 58 404 77H398Q387 58 366 37Q346 16 312 2Q278 -13 226 -13ZM241 63Q291 63 326 84Q362 104 381 138Q400 173 400 214V255L413 238L304 231Q219 226 178 204Q138 182 138 141Q138 116 150 98Q161 81 184 72Q207 63 241 63ZM268 -152Q243 -152 226 -136Q210 -119 210 -96Q210 -73 226 -56Q243 -40 268 -40Q292 -40 308 -56Q324 -73 324 -96Q324 -119 308 -136Q292 -152 268 -152Z"/></g>
<g data-glyph="uni1EA1.ss01" fill="#03aee9" opacity="1" transform="translate(314.15 376.72) scale(0.055 -0.055)"><path d="M299 -13Q244 -13 196 6Q149 26 114 62Q80 98 60 148Q41 197 41 257Q41 317 60 366Q80 416 114 452Q149 488 196 508Q244 527 299 527Q345 527 380 514Q414 500 440 476Q466 453 482 421H487V516H570V0H487V99H482Q466 67 442 41Q417 15 382 1Q347 -13 299 -13ZM308 68Q362 68 402 93Q443 118 465 161Q487 204 487 257Q487 307 465 350Q443 394 402 420Q362 446 308 446Q252 446 212 422Q172 397 150 355Q128 313 128 257Q128 203 150 160Q172 117 212 92Q252 68 308 68ZM311 -152Q286 -152 270 -136Q253 -119 253 -96Q253 -73 270 -56Q286 -40 311 -40Q335 -40 351 -56Q367 -73 367 -96Q367 -119 351 -136Q335 -152 311 -152Z"/></g>
<text x="332.0" y="404" text-anchor="middle" font-family="system-ui,sans-serif" font-size="6.5" fill="#6b7681">uni1EA1.ss01</text>
<g data-glyph="uni1EA1.rcltA11y" fill="#6b7681" opacity="0.35" transform="translate(388.24 376.72) scale(0.055 -0.055)"><path d="M230 -13Q174 -13 134 7Q93 27 72 62Q50 96 50 141Q50 218 114 258Q178 297 297 301L416 307L400 295V338Q400 388 364 418Q329 448 269 448Q222 448 184 429Q145 410 113 373L54 433Q97 482 148 505Q198 528 264 528Q334 528 384 504Q434 480 461 437Q488 394 488 336V127Q488 100 500 86Q511 72 528 70Q545 67 562 73V-4Q543 -13 520 -14Q496 -14 474 -5Q451 4 434 24Q416 44 410 77H405Q392 58 370 37Q348 16 314 2Q280 -13 230 -13ZM239 63Q290 63 326 84Q363 104 382 138Q400 173 400 214V255L413 235L304 230Q219 226 178 206Q138 185 138 142Q138 116 150 98Q161 81 184 72Q206 63 239 63ZM268 -152Q243 -152 226 -136Q210 -119 210 -96Q210 -73 226 -56Q243 -40 268 -40Q292 -40 308 -56Q324 -73 324 -96Q324 -119 308 -136Q292 -152 268 -152Z"/></g>
<g data-glyph="uni1EA1.ss01" fill="#03aee9" opacity="1" transform="translate(386.15 376.72) scale(0.055 -0.055)"><path d="M299 -13Q244 -13 196 6Q149 26 114 62Q80 98 60 148Q41 197 41 257Q41 317 60 366Q80 416 114 452Q149 488 196 508Q244 527 299 527Q345 527 380 514Q414 500 440 476Q466 453 482 421H487V516H570V0H487V99H482Q466 67 442 41Q417 15 382 1Q347 -13 299 -13ZM308 68Q362 68 402 93Q443 118 465 161Q487 204 487 257Q487 307 465 350Q443 394 402 420Q362 446 308 446Q252 446 212 422Q172 397 150 355Q128 313 128 257Q128 203 150 160Q172 117 212 92Q252 68 308 68ZM311 -152Q286 -152 270 -136Q253 -119 253 -96Q253 -73 270 -56Q286 -40 311 -40Q335 -40 351 -56Q367 -73 367 -96Q367 -119 351 -136Q335 -152 311 -152Z"/></g>
<text x="404.0" y="404" text-anchor="middle" font-family="system-ui,sans-serif" font-size="6.5" fill="#6b7681">uni1EA1.ss01</text>
<g data-glyph="uni1EA3" fill="#6b7681" opacity="0.35" transform="translate(460.57 376.72) scale(0.055 -0.055)"><path d="M226 -13Q172 -13 132 7Q93 27 72 61Q50 95 50 138Q50 190 79 224Q108 259 164 278Q219 298 298 302L416 310L400 296V338Q400 388 365 418Q330 448 271 448Q222 448 184 429Q145 410 113 373L54 433Q98 482 150 505Q201 528 273 528Q338 528 386 504Q435 480 462 437Q488 394 488 336V120Q488 90 488 60Q488 30 488 0H404Q404 20 404 39Q404 58 404 77H398Q387 58 366 37Q346 16 312 2Q278 -13 226 -13ZM241 63Q291 63 326 84Q362 104 381 138Q400 173 400 214V255L413 238L304 231Q219 226 178 204Q138 182 138 141Q138 116 150 98Q161 81 184 72Q207 63 241 63ZM241 568Q261 579 272 594Q282 609 282 625Q282 643 269 654Q256 664 234 664Q218 664 206 658Q195 653 187 647L152 697Q169 711 190 717Q212 723 232 723Q283 723 308 697Q333 671 333 635Q333 616 325 598Q317 580 300 568Z"/></g>
<g data-glyph="uni1EA3.ss01" fill="#03aee9" opacity="1" transform="translate(458.15 376.72) scale(0.055 -0.055)"><path d="M299 -13Q244 -13 196 6Q149 26 114 62Q80 98 60 148Q41 197 41 257Q41 317 60 366Q80 416 114 452Q149 488 196 508Q244 527 299 527Q345 527 380 514Q414 500 440 476Q466 453 482 421H487V516H570V0H487V99H482Q466 67 442 41Q417 15 382 1Q347 -13 299 -13ZM308 68Q362 68 402 93Q443 118 465 161Q487 204 487 257Q487 307 465 350Q443 394 402 420Q362 446 308 446Q252 446 212 422Q172 397 150 355Q128 313 128 257Q128 203 150 160Q172 117 212 92Q252 68 308 68ZM276 568Q296 579 306 594Q317 609 317 625Q317 643 304 654Q291 664 269 664Q253 664 242 658Q230 653 222 647L187 697Q204 711 226 717Q247 723 267 723Q318 723 343 697Q368 671 368 635Q368 616 360 598Q352 580 335 568Z"/></g>
<text x="476.0" y="404" text-anchor="middle" font-family="system-ui,sans-serif" font-size="6.5" fill="#6b7681">uni1EA3.ss01</text>
<g data-glyph="uni1EA3.rcltA11y" fill="#6b7681" opacity="0.35" transform="translate(532.24 376.72) scale(0.055 -0.055)"><path d="M230 -13Q174 -13 134 7Q93 27 72 62Q50 96 50 141Q50 218 114 258Q178 297 297 301L416 307L400 295V338Q400 388 364 418Q329 448 269 448Q222 448 184 429Q145 410 113 373L54 433Q97 482 148 505Q198 528 264 528Q334 528 384 504Q434 480 461 437Q488 394 488 336V127Q488 100 500 86Q511 72 528 70Q545 67 562 73V-4Q543 -13 520 -14Q496 -14 474 -5Q451 4 434 24Q416 44 410 77H405Q392 58 370 37Q348 16 314 2Q280 -13 230 -13ZM239 63Q290 63 326 84Q363 104 382 138Q400 173 400 214V255L413 235L304 230Q219 226 178 206Q138 185 138 142Q138 116 150 98Q161 81 184 72Q206 63 239 63ZM241 568Q261 579 272 594Q282 609 282 625Q282 643 269 654Q256 664 234 664Q218 664 206 658Q195 653 187 647L152 697Q169 711 190 717Q212 723 232 723Q283 723 308 697Q333 671 333 635Q333 616 325 598Q317 580 300 568Z"/></g>
<g data-glyph="uni1EA3.ss01" fill="#03aee9" opacity="1" transform="translate(530.15 376.72) scale(0.055 -0.055)"><path d="M299 -13Q244 -13 196 6Q149 26 114 62Q80 98 60 148Q41 197 41 257Q41 317 60 366Q80 416 114 452Q149 488 196 508Q244 527 299 527Q345 527 380 514Q414 500 440 476Q466 453 482 421H487V516H570V0H487V99H482Q466 67 442 41Q417 15 382 1Q347 -13 299 -13ZM308 68Q362 68 402 93Q443 118 465 161Q487 204 487 257Q487 307 465 350Q443 394 402 420Q362 446 308 446Q252 446 212 422Q172 397 150 355Q128 313 128 257Q128 203 150 160Q172 117 212 92Q252 68 308 68ZM276 568Q296 579 306 594Q317 609 317 625Q317 643 304 654Q291 664 269 664Q253 664 242 658Q230 653 222 647L187 697Q204 711 226 717Q247 723 267 723Q318 723 343 697Q368 671 368 635Q368 616 360 598Q352 580 335 568Z"/></g>
<text x="548.0" y="404" text-anchor="middle" font-family="system-ui,sans-serif" font-size="6.5" fill="#6b7681">uni1EA3.ss01</text>
<g data-glyph="uni1EA5" fill="#6b7681" opacity="0.35" transform="translate(28.57 468.72) scale(0.055 -0.055)"><path d="M226 -13Q172 -13 132 7Q93 27 72 61Q50 95 50 138Q50 190 79 224Q108 259 164 278Q219 298 298 302L416 310L400 296V338Q400 388 365 418Q330 448 271 448Q222 448 184 429Q145 410 113 373L54 433Q98 482 150 505Q201 528 273 528Q338 528 386 504Q435 480 462 437Q488 394 488 336V120Q488 90 488 60Q488 30 488 0H404Q404 20 404 39Q404 58 404 77H398Q387 58 366 37Q346 16 312 2Q278 -13 226 -13ZM241 63Q291 63 326 84Q362 104 381 138Q400 173 400 214V255L413 238L304 231Q219 226 178 204Q138 182 138 141Q138 116 150 98Q161 81 184 72Q207 63 241 63ZM130 581 245 749H300L411 581H331L273 681H271L212 581ZM157 692H106L135 857H232Z"/></g>
<g data-glyph="uni1EA5.ss01" fill="#03aee9" opacity="1" transform="translate(26.15 468.72) scale(0.055 -0.055)"><path d="M299 -13Q244 -13 196 6Q149 26 114 62Q80 98 60 148Q41 197 41 257Q41 317 60 366Q80 416 114 452Q149 488 196 508Q244 527 299 527Q345 527 380 514Q414 500 440 476Q466 453 482 421H487V516H570V0H487V99H482Q466 67 442 41Q417 15 382 1Q347 -13 299 -13ZM308 68Q362 68 402 93Q443 118 465 161Q487 204 487 257Q487 307 465 350Q443 394 402 420Q362 446 308 446Q252 446 212 422Q172 397 150 355Q128 313 128 257Q128 203 150 160Q172 117 212 92Q252 68 308 68ZM166 581 281 749H336L447 581H367L309 681H307L248 581ZM193 692H142L171 857H268Z"/></g>
<text x="44.0" y="496" text-anchor="middle" font-family="system-ui,sans-serif" font-size="6.5" fill="#6b7681">uni1EA5.ss01</text>
<g data-glyph="uni1EA5.rcltA11y" fill="#6b7681" opacity="0.35" transform="translate(100.24 468.72) scale(0.055 -0.055)"><path d="M230 -13Q174 -13 134 7Q93 27 72 62Q50 96 50 141Q50 218 114 258Q178 297 297 301L416 307L400 295V338Q400 388 364 418Q329 448 269 448Q222 448 184 429Q145 410 113 373L54 433Q97 482 148 505Q198 528 264 528Q334 528 384 504Q434 480 461 437Q488 394 488 336V127Q488 100 500 86Q511 72 528 70Q545 67 562 73V-4Q543 -13 520 -14Q496 -14 474 -5Q451 4 434 24Q416 44 410 77H405Q392 58 370 37Q348 16 314 2Q280 -13 230 -13ZM239 63Q290 63 326 84Q363 104 382 138Q400 173 400 214V255L413 235L304 230Q219 226 178 206Q138 185 138 142Q138 116 150 98Q161 81 184 72Q206 63 239 63ZM130 581 245 749H300L411 581H331L273 681H271L212 581ZM157 692H106L135 857H232Z"/></g>
<g data-glyph="uni1EA5.ss01" fill="#03aee9" opacity="1" transform="translate(98.15 468.72) scale(0.055 -0.055)"><path d="M299 -13Q244 -13 196 6Q149 26 114 62Q80 98 60 148Q41 197 41 257Q41 317 60 366Q80 416 114 452Q149 488 196 508Q244 527 299 527Q345 527 380 514Q414 500 440 476Q466 453 482 421H487V516H570V0H487V99H482Q466 67 442 41Q417 15 382 1Q347 -13 299 -13ZM308 68Q362 68 402 93Q443 118 465 161Q487 204 487 257Q487 307 465 350Q443 394 402 420Q362 446 308 446Q252 446 212 422Q172 397 150 355Q128 313 128 257Q128 203 150 160Q172 117 212 92Q252 68 308 68ZM166 581 281 749H336L447 581H367L309 681H307L248 581ZM193 692H142L171 857H268Z"/></g>
<text x="116.0" y="496" text-anchor="middle" font-family="system-ui,sans-serif" font-size="6.5" fill="#6b7681">uni1EA5.ss01</text>
<g data-glyph="uni1EA7" fill="#6b7681" opacity="0.35" transform="translate(172.57 468.72) scale(0.055 -0.055)"><path d="M226 -13Q172 -13 132 7Q93 27 72 61Q50 95 50 138Q50 190 79 224Q108 259 164 278Q219 298 298 302L416 310L400 296V338Q400 388 365 418Q330 448 271 448Q222 448 184 429Q145 410 113 373L54 433Q98 482 150 505Q201 528 273 528Q338 528 386 504Q435 480 462 437Q488 394 488 336V120Q488 90 488 60Q488 30 488 0H404Q404 20 404 39Q404 58 404 77H398Q387 58 366 37Q346 16 312 2Q278 -13 226 -13ZM241 63Q291 63 326 84Q362 104 381 138Q400 173 400 214V255L413 238L304 231Q219 226 178 204Q138 182 138 141Q138 116 150 98Q161 81 184 72Q207 63 241 63ZM130 581 245 749H300L411 581H331L273 681H271L212 581ZM388 694 313 859H411L439 694Z"/></g>
<g data-glyph="uni1EA7.ss01" fill="#03aee9" opacity="1" transform="translate(170.15 468.72) scale(0.055 -0.055)"><path d="M299 -13Q244 -13 196 6Q149 26 114 62Q80 98 60 148Q41 197 41 257Q41 317 60 366Q80 416 114 452Q149 488 196 508Q244 527 299 527Q345 527 380 514Q414 500 440 476Q466 453 482 421H487V516H570V0H487V99H482Q466 67 442 41Q417 15 382 1Q347 -13 299 -13ZM308 68Q362 68 402 93Q443 118 465 161Q487 204 487 257Q487 307 465 350Q443 394 402 420Q362 446 308 446Q252 446 212 422Q172 397 150 355Q128 313 128 257Q128 203 150 160Q172 117 212 92Q252 68 308 68ZM166 581 281 749H336L447 581H367L309 681H307L248 581ZM424 694 349 859H447L475 694Z"/></g>
<text x="188.0" y="496" text-anchor="middle" font-family="system-ui,sans-serif" font-size="6.5" fill="#6b7681">uni1EA7.ss01</text>
<g data-glyph="uni1EA7.rcltA11y" fill="#6b7681" opacity="0.35" transform="translate(244.24 468.72) scale(0.055 -0.055)"><path d="M230 -13Q174 -13 134 7Q93 27 72 62Q50 96 50 141Q50 218 114 258Q178 297 297 301L416 307L400 295V338Q400 388 364 418Q329 448 269 448Q222 448 184 429Q145 410 113 373L54 433Q97 482 148 505Q198 528 264 528Q334 528 384 504Q434 480 461 437Q488 394 488 336V127Q488 100 500 86Q511 72 528 70Q545 67 562 73V-4Q543 -13 520 -14Q496 -14 474 -5Q451 4 434 24Q416 44 410 77H405Q392 58 370 37Q348 16 314 2Q280 -13 230 -13ZM239 63Q290 63 326 84Q363 104 382 138Q400 173 400 214V255L413 235L304 230Q219 226 178 206Q138 185 138 142Q138 116 150 98Q161 81 184 72Q206 63 239 63ZM130 581 245 749H300L411 581H331L273 681H271L212 581ZM388 694 313 859H411L439 694Z"/></g>
<g data-glyph="uni1EA7.ss01" fill="#03aee9" opacity="1" transform="translate(242.15 468.72) scale(0.055 -0.055)"><path d="M299 -13Q244 -13 196 6Q149 26 114 62Q80 98 60 148Q41 197 41 257Q41 317 60 366Q80 416 114 452Q149 488 196 508Q244 527 299 527Q345 527 380 514Q414 500 440 476Q466 453 482 421H487V516H570V0H487V99H482Q466 67 442 41Q417 15 382 1Q347 -13 299 -13ZM308 68Q362 68 402 93Q443 118 465 161Q487 204 487 257Q487 307 465 350Q443 394 402 420Q362 446 308 446Q252 446 212 422Q172 397 150 355Q128 313 128 257Q128 203 150 160Q172 117 212 92Q252 68 308 68ZM166 581 281 749H336L447 581H367L309 681H307L248 581ZM424 694 349 859H447L475 694Z"/></g>
<text x="260.0" y="496" text-anchor="middle" font-family="system-ui,sans-serif" font-size="6.5" fill="#6b7681">uni1EA7.ss01</text>
<g data-glyph="uni1EA9" fill="#6b7681" opacity="0.35" transform="translate(316.57 468.72) scale(0.055 -0.055)"><path d="M226 -13Q172 -13 132 7Q93 27 72 61Q50 95 50 138Q50 190 79 224Q108 259 164 278Q219 298 298 302L416 310L400 296V338Q400 388 365 418Q330 448 271 448Q222 448 184 429Q145 410 113 373L54 433Q98 482 150 505Q201 528 273 528Q338 528 386 504Q435 480 462 437Q488 394 488 336V120Q488 90 488 60Q488 30 488 0H404Q404 20 404 39Q404 58 404 77H398Q387 58 366 37Q346 16 312 2Q278 -13 226 -13ZM241 63Q291 63 326 84Q362 104 381 138Q400 173 400 214V255L413 238L304 231Q219 226 178 204Q138 182 138 141Q138 116 150 98Q161 81 184 72Q207 63 241 63ZM352 728Q369 733 376 742Q383 752 383 767Q383 785 368 796Q352 806 326 806Q313 806 300 802Q288 799 278 792L250 849Q267 860 286 865Q304 870 331 870Q366 870 391 858Q416 846 430 824Q443 803 443 776Q443 740 426 720Q410 700 379 685ZM130 581 245 749H300L411 581H330L273 681H271L212 581Z"/></g>
<g data-glyph="uni1EA9.ss01" fill="#03aee9" opacity="1" transform="translate(314.15 468.72) scale(0.055 -0.055)"><path d="M299 -13Q244 -13 196 6Q149 26 114 62Q80 98 60 148Q41 197 41 257Q41 317 60 366Q80 416 114 452Q149 488 196 508Q244 527 299 527Q345 527 380 514Q414 500 440 476Q466 453 482 421H487V516H570V0H487V99H482Q466 67 442 41Q417 15 382 1Q347 -13 299 -13ZM308 68Q362 68 402 93Q443 118 465 161Q487 204 487 257Q487 307 465 350Q443 394 402 420Q362 446 308 446Q252 446 212 422Q172 397 150 355Q128 313 128 257Q128 203 150 160Q172 117 212 92Q252 68 308 68ZM388 728Q405 733 412 742Q419 752 419 767Q419 785 404 796Q388 806 362 806Q349 806 336 802Q324 799 314 792L286 849Q303 860 322 865Q340 870 367 870Q402 870 427 858Q452 846 466 824Q479 803 479 776Q479 740 462 720Q446 700 415 685ZM166 581 281 749H336L447 581H366L309 681H307L248 581Z"/></g>
<text x="332.0" y="496" text-anchor="middle" font-family="system-ui,sans-serif" font-size="6.5" fill="#6b7681">uni1EA9.ss01</text>
<g data-glyph="uni1EA9.rcltA11y" fill="#6b7681" opacity="0.35" transform="translate(388.24 468.72) scale(0.055 -0.055)"><path d="M230 -13Q174 -13 134 7Q93 27 72 62Q50 96 50 141Q50 218 114 258Q178 297 297 301L416 307L400 295V338Q400 388 364 418Q329 448 269 448Q222 448 184 429Q145 410 113 373L54 433Q97 482 148 505Q198 528 264 528Q334 528 384 504Q434 480 461 437Q488 394 488 336V127Q488 100 500 86Q511 72 528 70Q545 67 562 73V-4Q543 -13 520 -14Q496 -14 474 -5Q451 4 434 24Q416 44 410 77H405Q392 58 370 37Q348 16 314 2Q280 -13 230 -13ZM239 63Q290 63 326 84Q363 104 382 138Q400 173 400 214V255L413 235L304 230Q219 226 178 206Q138 185 138 142Q138 116 150 98Q161 81 184 72Q206 63 239 63ZM352 728Q369 733 376 742Q383 752 383 767Q383 785 368 796Q352 806 326 806Q313 806 300 802Q288 799 278 792L250 849Q267 860 286 865Q304 870 331 870Q366 870 391 858Q416 846 430 824Q443 803 443 776Q443 740 426 720Q410 700 379 685ZM130 581 245 749H300L411 581H330L273 681H271L212 581Z"/></g>
<g data-glyph="uni1EA9.ss01" fill="#03aee9" opacity="1" transform="translate(386.15 468.72) scale(0.055 -0.055)"><path d="M299 -13Q244 -13 196 6Q149 26 114 62Q80 98 60 148Q41 197 41 257Q41 317 60 366Q80 416 114 452Q149 488 196 508Q244 527 299 527Q345 527 380 514Q414 500 440 476Q466 453 482 421H487V516H570V0H487V99H482Q466 67 442 41Q417 15 382 1Q347 -13 299 -13ZM308 68Q362 68 402 93Q443 118 465 161Q487 204 487 257Q487 307 465 350Q443 394 402 420Q362 446 308 446Q252 446 212 422Q172 397 150 355Q128 313 128 257Q128 203 150 160Q172 117 212 92Q252 68 308 68ZM388 728Q405 733 412 742Q419 752 419 767Q419 785 404 796Q388 806 362 806Q349 806 336 802Q324 799 314 792L286 849Q303 860 322 865Q340 870 367 870Q402 870 427 858Q452 846 466 824Q479 803 479 776Q479 740 462 720Q446 700 415 685ZM166 581 281 749H336L447 581H366L309 681H307L248 581Z"/></g>
<text x="404.0" y="496" text-anchor="middle" font-family="system-ui,sans-serif" font-size="6.5" fill="#6b7681">uni1EA9.ss01</text>
<g data-glyph="uni1EAB" fill="#6b7681" opacity="0.35" transform="translate(460.57 468.72) scale(0.055 -0.055)"><path d="M226 -13Q172 -13 132 7Q93 27 72 61Q50 95 50 138Q50 190 79 224Q108 259 164 278Q219 298 298 302L416 310L400 296V338Q400 388 365 418Q330 448 271 448Q222 448 184 429Q145 410 113 373L54 433Q98 482 150 505Q201 528 273 528Q338 528 386 504Q435 480 462 437Q488 394 488 336V120Q488 90 488 60Q488 30 488 0H404Q404 20 404 39Q404 58 404 77H398Q387 58 366 37Q346 16 312 2Q278 -13 226 -13ZM241 63Q291 63 326 84Q362 104 381 138Q400 173 400 214V255L413 238L304 231Q219 226 178 204Q138 182 138 141Q138 116 150 98Q161 81 184 72Q207 63 241 63ZM130 581 245 749H300L411 581H331L273 681H271L212 581ZM343 780Q309 780 290 790Q270 801 258 816Q246 830 234 840Q223 851 206 851Q187 851 175 839Q163 827 163 799H112Q112 853 138 883Q163 913 205 913Q238 913 258 902Q277 892 290 878Q302 863 314 852Q325 842 343 842Q360 842 370 855Q381 868 381 894H436Q436 840 410 810Q384 780 343 780Z"/></g>
<g data-glyph="uni1EAB.ss01" fill="#03aee9" opacity="1" transform="translate(458.15 468.72) scale(0.055 -0.055)"><path d="M299 -13Q244 -13 196 6Q149 26 114 62Q80 98 60 148Q41 197 41 257Q41 317 60 366Q80 416 114 452Q149 488 196 508Q244 527 299 527Q345 527 380 514Q414 500 440 476Q466 453 482 421H487V516H570V0H487V99H482Q466 67 442 41Q417 15 382 1Q347 -13 299 -13ZM308 68Q362 68 402 93Q443 118 465 161Q487 204 487 257Q487 307 465 350Q443 394 402 420Q362 446 308 446Q252 446 212 422Q172 397 150 355Q128 313 128 257Q128 203 150 160Q172 117 212 92Q252 68 308 68ZM166 581 281 749H336L447 581H367L309 681H307L248 581ZM379 780Q345 780 326 790Q306 801 294 816Q282 830 270 840Q259 851 242 851Q223 851 211 839Q199 827 199 799H148Q148 853 174 883Q199 913 241 913Q274 913 294 902Q313 892 326 878Q338 863 350 852Q361 842 379 842Q396 842 406 855Q417 868 417 894H472Q472 840 446 810Q420 780 379 780Z"/></g>
<text x="476.0" y="496" text-anchor="middle" font-family="system-ui,sans-serif" font-size="6.5" fill="#6b7681">uni1EAB.ss01</text>
<g data-glyph="uni1EAB.rcltA11y" fill="#6b7681" opacity="0.35" transform="translate(532.24 468.72) scale(0.055 -0.055)"><path d="M230 -13Q174 -13 134 7Q93 27 72 62Q50 96 50 141Q50 218 114 258Q178 297 297 301L416 307L400 295V338Q400 388 364 418Q329 448 269 448Q222 448 184 429Q145 410 113 373L54 433Q97 482 148 505Q198 528 264 528Q334 528 384 504Q434 480 461 437Q488 394 488 336V127Q488 100 500 86Q511 72 528 70Q545 67 562 73V-4Q543 -13 520 -14Q496 -14 474 -5Q451 4 434 24Q416 44 410 77H405Q392 58 370 37Q348 16 314 2Q280 -13 230 -13ZM239 63Q290 63 326 84Q363 104 382 138Q400 173 400 214V255L413 235L304 230Q219 226 178 206Q138 185 138 142Q138 116 150 98Q161 81 184 72Q206 63 239 63ZM130 581 245 749H300L411 581H331L273 681H271L212 581ZM343 780Q309 780 290 790Q270 801 258 816Q246 830 234 840Q223 851 206 851Q187 851 175 839Q163 827 163 799H112Q112 853 138 883Q163 913 205 913Q238 913 258 902Q277 892 290 878Q302 863 314 852Q325 842 343 842Q360 842 370 855Q381 868 381 894H436Q436 840 410 810Q384 780 343 780Z"/></g>
<g data-glyph="uni1EAB.ss01" fill="#03aee9" opacity="1" transform="translate(530.15 468.72) scale(0.055 -0.055)"><path d="M299 -13Q244 -13 196 6Q149 26 114 62Q80 98 60 148Q41 197 41 257Q41 317 60 366Q80 416 114 452Q149 488 196 508Q244 527 299 527Q345 527 380 514Q414 500 440 476Q466 453 482 421H487V516H570V0H487V99H482Q466 67 442 41Q417 15 382 1Q347 -13 299 -13ZM308 68Q362 68 402 93Q443 118 465 161Q487 204 487 257Q487 307 465 350Q443 394 402 420Q362 446 308 446Q252 446 212 422Q172 397 150 355Q128 313 128 257Q128 203 150 160Q172 117 212 92Q252 68 308 68ZM166 581 281 749H336L447 581H367L309 681H307L248 581ZM379 780Q345 780 326 790Q306 801 294 816Q282 830 270 840Q259 851 242 851Q223 851 211 839Q199 827 199 799H148Q148 853 174 883Q199 913 241 913Q274 913 294 902Q313 892 326 878Q338 863 350 852Q361 842 379 842Q396 842 406 855Q417 868 417 894H472Q472 840 446 810Q420 780 379 780Z"/></g>
<text x="548.0" y="496" text-anchor="middle" font-family="system-ui,sans-serif" font-size="6.5" fill="#6b7681">uni1EAB.ss01</text>
<g data-glyph="uni1EAD" fill="#6b7681" opacity="0.35" transform="translate(28.57 560.72) scale(0.055 -0.055)"><path d="M226 -13Q172 -13 132 7Q93 27 72 61Q50 95 50 138Q50 190 79 224Q108 259 164 278Q219 298 298 302L416 310L400 296V338Q400 388 365 418Q330 448 271 448Q222 448 184 429Q145 410 113 373L54 433Q98 482 150 505Q201 528 273 528Q338 528 386 504Q435 480 462 437Q488 394 488 336V120Q488 90 488 60Q488 30 488 0H404Q404 20 404 39Q404 58 404 77H398Q387 58 366 37Q346 16 312 2Q278 -13 226 -13ZM241 63Q291 63 326 84Q362 104 381 138Q400 173 400 214V255L413 238L304 231Q219 226 178 204Q138 182 138 141Q138 116 150 98Q161 81 184 72Q207 63 241 63ZM268 -152Q243 -152 226 -136Q210 -119 210 -96Q210 -73 226 -56Q243 -40 268 -40Q292 -40 308 -56Q324 -73 324 -96Q324 -119 308 -136Q292 -152 268 -152ZM130 581 245 749H300L411 581H331L273 681H271L212 581Z"/></g>
<g data-glyph="uni1EAD.ss01" fill="#03aee9" opacity="1" transform="translate(26.15 560.72) scale(0.055 -0.055)"><path d="M299 -13Q244 -13 196 6Q149 26 114 62Q80 98 60 148Q41 197 41 257Q41 317 60 366Q80 416 114 452Q149 488 196 508Q244 527 299 527Q345 527 380 514Q414 500 440 476Q466 453 482 421H487V516H570V0H487V99H482Q466 67 442 41Q417 15 382 1Q347 -13 299 -13ZM308 68Q362 68 402 93Q443 118 465 161Q487 204 487 257Q487 307 465 350Q443 394 402 420Q362 446 308 446Q252 446 212 422Q172 397 150 355Q128 313 128 257Q128 203 150 160Q172 117 212 92Q252 68 308 68ZM311 -152Q286 -152 270 -136Q253 -119 253 -96Q253 -73 270 -56Q286 -40 311 -40Q335 -40 351 -56Q367 -73 367 -96Q367 -119 351 -136Q335 -152 311 -152ZM166 581 281 749H336L447 581H367L309 681H307L248 581Z"/></g>
<text x="44.0" y="588" text-anchor="middle" font-family="system-ui,sans-serif" font-size="6.5" fill="#6b7681">uni1EAD.ss01</text>
<g data-glyph="uni1EAD.rcltA11y" fill="#6b7681" opacity="0.35" transform="translate(100.24 560.72) scale(0.055 -0.055)"><path d="M230 -13Q174 -13 134 7Q93 27 72 62Q50 96 50 141Q50 218 114 258Q178 297 297 301L416 307L400 295V338Q400 388 364 418Q329 448 269 448Q222 448 184 429Q145 410 113 373L54 433Q97 482 148 505Q198 528 264 528Q334 528 384 504Q434 480 461 437Q488 394 488 336V127Q488 100 500 86Q511 72 528 70Q545 67 562 73V-4Q543 -13 520 -14Q496 -14 474 -5Q451 4 434 24Q416 44 410 77H405Q392 58 370 37Q348 16 314 2Q280 -13 230 -13ZM239 63Q290 63 326 84Q363 104 382 138Q400 173 400 214V255L413 235L304 230Q219 226 178 206Q138 185 138 142Q138 116 150 98Q161 81 184 72Q206 63 239 63ZM268 -152Q243 -152 226 -136Q210 -119 210 -96Q210 -73 226 -56Q243 -40 268 -40Q292 -40 308 -56Q324 -73 324 -96Q324 -119 308 -136Q292 -152 268 -152ZM130 581 245 749H300L411 581H331L273 681H271L212 581Z"/></g>
<g data-glyph="uni1EAD.ss01" fill="#03aee9" opacity="1" transform="translate(98.15 560.72) scale(0.055 -0.055)"><path d="M299 -13Q244 -13 196 6Q149 26 114 62Q80 98 60 148Q41 197 41 257Q41 317 60 366Q80 416 114 452Q149 488 196 508Q244 527 299 527Q345 527 380 514Q414 500 440 476Q466 453 482 421H487V516H570V0H487V99H482Q466 67 442 41Q417 15 382 1Q347 -13 299 -13ZM308 68Q362 68 402 93Q443 118 465 161Q487 204 487 257Q487 307 465 350Q443 394 402 420Q362 446 308 446Q252 446 212 422Q172 397 150 355Q128 313 128 257Q128 203 150 160Q172 117 212 92Q252 68 308 68ZM311 -152Q286 -152 270 -136Q253 -119 253 -96Q253 -73 270 -56Q286 -40 311 -40Q335 -40 351 -56Q367 -73 367 -96Q367 -119 351 -136Q335 -152 311 -152ZM166 581 281 749H336L447 581H367L309 681H307L248 581Z"/></g>
<text x="116.0" y="588" text-anchor="middle" font-family="system-ui,sans-serif" font-size="6.5" fill="#6b7681">uni1EAD.ss01</text>
<g data-glyph="uni1EAF" fill="#6b7681" opacity="0.35" transform="translate(172.57 560.72) scale(0.055 -0.055)"><path d="M226 -13Q172 -13 132 7Q93 27 72 61Q50 95 50 138Q50 190 79 224Q108 259 164 278Q219 298 298 302L416 310L400 296V338Q400 388 365 418Q330 448 271 448Q222 448 184 429Q145 410 113 373L54 433Q98 482 150 505Q201 528 273 528Q338 528 386 504Q435 480 462 437Q488 394 488 336V120Q488 90 488 60Q488 30 488 0H404Q404 20 404 39Q404 58 404 77H398Q387 58 366 37Q346 16 312 2Q278 -13 226 -13ZM241 63Q291 63 326 84Q362 104 381 138Q400 173 400 214V255L413 238L304 231Q219 226 178 204Q138 182 138 141Q138 116 150 98Q161 81 184 72Q207 63 241 63ZM270 579Q229 579 196 597Q164 615 146 646Q127 678 127 718H196Q195 699 203 681Q211 663 228 650Q246 638 270 638Q298 638 314 650Q331 663 338 681Q345 699 344 718H414Q414 678 396 646Q377 615 345 597Q313 579 270 579ZM296 721H245L274 886H371Z"/></g>
<g data-glyph="uni1EAF.ss01" fill="#03aee9" opacity="1" transform="translate(170.15 560.72) scale(0.055 -0.055)"><path d="M299 -13Q244 -13 196 6Q149 26 114 62Q80 98 60 148Q41 197 41 257Q41 317 60 366Q80 416 114 452Q149 488 196 508Q244 527 299 527Q345 527 380 514Q414 500 440 476Q466 453 482 421H487V516H570V0H487V99H482Q466 67 442 41Q417 15 382 1Q347 -13 299 -13ZM308 68Q362 68 402 93Q443 118 465 161Q487 204 487 257Q487 307 465 350Q443 394 402 420Q362 446 308 446Q252 446 212 422Q172 397 150 355Q128 313 128 257Q128 203 150 160Q172 117 212 92Q252 68 308 68ZM306 579Q265 579 232 597Q200 615 182 646Q163 678 163 718H232Q231 699 239 681Q247 663 264 650Q282 638 306 638Q334 638 350 650Q367 663 374 681Q381 699 380 718H450Q450 678 432 646Q413 615 381 597Q349 579 306 579ZM331 721H280L309 886H406Z"/></g>
<text x="188.0" y="588" text-anchor="middle" font-family="system-ui,sans-serif" font-size="6.5" fill="#6b7681">uni1EAF.ss01</text>
<g data-glyph="uni1EAF.rcltA11y" fill="#6b7681" opacity="0.35" transform="translate(244.24 560.72) scale(0.055 -0.055)"><path d="M230 -13Q174 -13 134 7Q93 27 72 62Q50 96 50 141Q50 218 114 258Q178 297 297 301L416 307L400 295V338Q400 388 364 418Q329 448 269 448Q222 448 184 429Q145 410 113 373L54 433Q97 482 148 505Q198 528 264 528Q334 528 384 504Q434 480 461 437Q488 394 488 336V127Q488 100 500 86Q511 72 528 70Q545 67 562 73V-4Q543 -13 520 -14Q496 -14 474 -5Q451 4 434 24Q416 44 410 77H405Q392 58 370 37Q348 16 314 2Q280 -13 230 -13ZM239 63Q290 63 326 84Q363 104 382 138Q400 173 400 214V255L413 235L304 230Q219 226 178 206Q138 185 138 142Q138 116 150 98Q161 81 184 72Q206 63 239 63ZM270 579Q229 579 196 597Q164 615 146 646Q127 678 127 718H196Q195 699 203 681Q211 663 228 650Q246 638 270 638Q298 638 314 650Q331 663 338 681Q345 699 344 718H414Q414 678 396 646Q377 615 345 597Q313 579 270 579ZM296 721H245L274 886H371Z"/></g>
<g data-glyph="uni1EAF.ss01" fill="#03aee9" opacity="1" transform="translate(242.15 560.72) scale(0.055 -0.055)"><path d="M299 -13Q244 -13 196 6Q149 26 114 62Q80 98 60 148Q41 197 41 257Q41 317 60 366Q80 416 114 452Q149 488 196 508Q244 527 299 527Q345 527 380 514Q414 500 440 476Q466 453 482 421H487V516H570V0H487V99H482Q466 67 442 41Q417 15 382 1Q347 -13 299 -13ZM308 68Q362 68 402 93Q443 118 465 161Q487 204 487 257Q487 307 465 350Q443 394 402 420Q362 446 308 446Q252 446 212 422Q172 397 150 355Q128 313 128 257Q128 203 150 160Q172 117 212 92Q252 68 308 68ZM306 579Q265 579 232 597Q200 615 182 646Q163 678 163 718H232Q231 699 239 681Q247 663 264 650Q282 638 306 638Q334 638 350 650Q367 663 374 681Q381 699 380 718H450Q450 678 432 646Q413 615 381 597Q349 579 306 579ZM331 721H280L309 886H406Z"/></g>
<text x="260.0" y="588" text-anchor="middle" font-family="system-ui,sans-serif" font-size="6.5" fill="#6b7681">uni1EAF.ss01</text>
<g data-glyph="uni1EB1" fill="#6b7681" opacity="0.35" transform="translate(316.57 560.72) scale(0.055 -0.055)"><path d="M226 -13Q172 -13 132 7Q93 27 72 61Q50 95 50 138Q50 190 79 224Q108 259 164 278Q219 298 298 302L416 310L400 296V338Q400 388 365 418Q330 448 271 448Q222 448 184 429Q145 410 113 373L54 433Q98 482 150 505Q201 528 273 528Q338 528 386 504Q435 480 462 437Q488 394 488 336V120Q488 90 488 60Q488 30 488 0H404Q404 20 404 39Q404 58 404 77H398Q387 58 366 37Q346 16 312 2Q278 -13 226 -13ZM241 63Q291 63 326 84Q362 104 381 138Q400 173 400 214V255L413 238L304 231Q219 226 178 204Q138 182 138 141Q138 116 150 98Q161 81 184 72Q207 63 241 63ZM270 579Q229 579 196 597Q164 615 146 646Q127 678 127 718H196Q195 699 203 681Q211 663 228 650Q246 638 270 638Q298 638 314 650Q331 663 338 681Q345 699 344 718H414Q414 678 396 646Q377 615 345 597Q313 579 270 579ZM246 723 171 888H269L297 723Z"/></g>
<g data-glyph="uni1EB1.ss01" fill="#03aee9" opacity="1" transform="translate(314.15 560.72) scale(0.055 -0.055)"><path d="M299 -13Q244 -13 196 6Q149 26 114 62Q80 98 60 148Q41 197 41 257Q41 317 60 366Q80 416 114 452Q149 488 196 508Q244 527 299 527Q345 527 380 514Q414 500 440 476Q466 453 482 421H487V516H570V0H487V99H482Q466 67 442 41Q417 15 382 1Q347 -13 299 -13ZM308 68Q362 68 402 93Q443 118 465 161Q487 204 487 257Q487 307 465 350Q443 394 402 420Q362 446 308 446Q252 446 212 422Q172 397 150 355Q128 313 128 257Q128 203 150 160Q172 117 212 92Q252 68 308 68ZM306 579Q265 579 232 597Q200 615 182 646Q163 678 163 718H232Q231 699 239 681Q247 663 264 650Q282 638 306 638Q334 638 350 650Q367 663 374 681Q381 699 380 718H450Q450 678 432 646Q413 615 381 597Q349 579 306 579ZM281 723 206 888H304L332 723Z"/></g>
<text x="332.0" y="588" text-anchor="middle" font-family="system-ui,sans-serif" font-size="6.5" fill="#6b7681">uni1EB1.ss01</text>
<g data-glyph="uni1EB1.rcltA11y" fill="#6b7681" opacity="0.35" transform="translate(388.24 560.72) scale(0.055 -0.055)"><path d="M230 -13Q174 -13 134 7Q93 27 72 62Q50 96 50 141Q50 218 114 258Q178 297 297 301L416 307L400 295V338Q400 388 364 418Q329 448 269 448Q222 448 184 429Q145 410 113 373L54 433Q97 482 148 505Q198 528 264 528Q334 528 384 504Q434 480 461 437Q488 394 488 336V127Q488 100 500 86Q511 72 528 70Q545 67 562 73V-4Q543 -13 520 -14Q496 -14 474 -5Q451 4 434 24Q416 44 410 77H405Q392 58 370 37Q348 16 314 2Q280 -13 230 -13ZM239 63Q290 63 326 84Q363 104 382 138Q400 173 400 214V255L413 235L304 230Q219 226 178 206Q138 185 138 142Q138 116 150 98Q161 81 184 72Q206 63 239 63ZM270 579Q229 579 196 597Q164 615 146 646Q127 678 127 718H196Q195 699 203 681Q211 663 228 650Q246 638 270 638Q298 638 314 650Q331 663 338 681Q345 699 344 718H414Q414 678 396 646Q377 615 345 597Q313 579 270 579ZM246 723 171 888H269L297 723Z"/></g>
<g data-glyph="uni1EB1.ss01" fill="#03aee9" opacity="1" transform="translate(386.15 560.72) scale(0.055 -0.055)"><path d="M299 -13Q244 -13 196 6Q149 26 114 62Q80 98 60 148Q41 197 41 257Q41 317 60 366Q80 416 114 452Q149 488 196 508Q244 527 299 527Q345 527 380 514Q414 500 440 476Q466 453 482 421H487V516H570V0H487V99H482Q466 67 442 41Q417 15 382 1Q347 -13 299 -13ZM308 68Q362 68 402 93Q443 118 465 161Q487 204 487 257Q487 307 465 350Q443 394 402 420Q362 446 308 446Q252 446 212 422Q172 397 150 355Q128 313 128 257Q128 203 150 160Q172 117 212 92Q252 68 308 68ZM306 579Q265 579 232 597Q200 615 182 646Q163 678 163 718H232Q231 699 239 681Q247 663 264 650Q282 638 306 638Q334 638 350 650Q367 663 374 681Q381 699 380 718H450Q450 678 432 646Q413 615 381 597Q349 579 306 579ZM281 723 206 888H304L332 723Z"/></g>
<text x="404.0" y="588" text-anchor="middle" font-family="system-ui,sans-serif" font-size="6.5" fill="#6b7681">uni1EB1.ss01</text>
<g data-glyph="uni1EB3" fill="#6b7681" opacity="0.35" transform="translate(460.57 560.72) scale(0.055 -0.055)"><path d="M226 -13Q172 -13 132 7Q93 27 72 61Q50 95 50 138Q50 190 79 224Q108 259 164 278Q219 298 298 302L416 310L400 296V338Q400 388 365 418Q330 448 271 448Q222 448 184 429Q145 410 113 373L54 433Q98 482 150 505Q201 528 273 528Q338 528 386 504Q435 480 462 437Q488 394 488 336V120Q488 90 488 60Q488 30 488 0H404Q404 20 404 39Q404 58 404 77H398Q387 58 366 37Q346 16 312 2Q278 -13 226 -13ZM241 63Q291 63 326 84Q362 104 381 138Q400 173 400 214V255L413 238L304 231Q219 226 178 204Q138 182 138 141Q138 116 150 98Q161 81 184 72Q207 63 241 63ZM244 739Q261 744 268 754Q275 763 275 778Q275 796 260 806Q244 817 218 817Q205 817 192 814Q180 810 170 803L142 860Q159 871 178 876Q196 881 223 881Q258 881 283 869Q308 857 322 836Q335 814 335 787Q335 751 318 731Q302 711 271 696ZM270 579Q228 579 196 597Q164 615 146 646Q127 678 127 718H196Q195 699 203 681Q211 663 228 650Q245 638 270 638Q298 638 314 650Q331 663 338 681Q345 699 344 718H414Q414 678 396 646Q377 615 345 597Q313 579 270 579Z"/></g>
<g data-glyph="uni1EB3.ss01" fill="#03aee9" opacity="1" transform="translate(458.15 560.72) scale(0.055 -0.055)"><path d="M299 -13Q244 -13 196 6Q149 26 114 62Q80 98 60 148Q41 197 41 257Q41 317 60 366Q80 416 114 452Q149 488 196 508Q244 527 299 527Q345 527 380 514Q414 500 440 476Q466 453 482 421H487V516H570V0H487V99H482Q466 67 442 41Q417 15 382 1Q347 -13 299 -13ZM308 68Q362 68 402 93Q443 118 465 161Q487 204 487 257Q487 307 465 350Q443 394 402 420Q362 446 308 446Q252 446 212 422Q172 397 150 355Q128 313 128 257Q128 203 150 160Q172 117 212 92Q252 68 308 68ZM280 739Q297 744 304 754Q311 763 311 778Q311 796 296 806Q280 817 254 817Q241 817 228 814Q216 810 206 803L178 860Q195 871 214 876Q232 881 259 881Q294 881 319 869Q344 857 358 836Q371 814 371 787Q371 751 354 731Q338 711 307 696ZM306 579Q264 579 232 597Q200 615 182 646Q163 678 163 718H232Q231 699 239 681Q247 663 264 650Q281 638 306 638Q334 638 350 650Q367 663 374 681Q381 699 380 718H450Q450 678 432 646Q413 615 381 597Q349 579 306 579Z"/></g>
<text x="476.0" y="588" text-anchor="middle" font-family="system-ui,sans-serif" font-size="6.5" fill="#6b7681">uni1EB3.ss01</text>
<g data-glyph="uni1EB3.rcltA11y" fill="#6b7681" opacity="0.35" transform="translate(532.24 560.72) scale(0.055 -0.055)"><path d="M230 -13Q174 -13 134 7Q93 27 72 62Q50 96 50 141Q50 218 114 258Q178 297 297 301L416 307L400 295V338Q400 388 364 418Q329 448 269 448Q222 448 184 429Q145 410 113 373L54 433Q97 482 148 505Q198 528 264 528Q334 528 384 504Q434 480 461 437Q488 394 488 336V127Q488 100 500 86Q511 72 528 70Q545 67 562 73V-4Q543 -13 520 -14Q496 -14 474 -5Q451 4 434 24Q416 44 410 77H405Q392 58 370 37Q348 16 314 2Q280 -13 230 -13ZM239 63Q290 63 326 84Q363 104 382 138Q400 173 400 214V255L413 235L304 230Q219 226 178 206Q138 185 138 142Q138 116 150 98Q161 81 184 72Q206 63 239 63ZM244 739Q261 744 268 754Q275 763 275 778Q275 796 260 806Q244 817 218 817Q205 817 192 814Q180 810 170 803L142 860Q159 871 178 876Q196 881 223 881Q258 881 283 869Q308 857 322 836Q335 814 335 787Q335 751 318 731Q302 711 271 696ZM270 579Q228 579 196 597Q164 615 146 646Q127 678 127 718H196Q195 699 203 681Q211 663 228 650Q245 638 270 638Q298 638 314 650Q331 663 338 681Q345 699 344 718H414Q414 678 396 646Q377 615 345 597Q313 579 270 579Z"/></g>
<g data-glyph="uni1EB3.ss01" fill="#03aee9" opacity="1" transform="translate(530.15 560.72) scale(0.055 -0.055)"><path d="M299 -13Q244 -13 196 6Q149 26 114 62Q80 98 60 148Q41 197 41 257Q41 317 60 366Q80 416 114 452Q149 488 196 508Q244 527 299 527Q345 527 380 514Q414 500 440 476Q466 453 482 421H487V516H570V0H487V99H482Q466 67 442 41Q417 15 382 1Q347 -13 299 -13ZM308 68Q362 68 402 93Q443 118 465 161Q487 204 487 257Q487 307 465 350Q443 394 402 420Q362 446 308 446Q252 446 212 422Q172 397 150 355Q128 313 128 257Q128 203 150 160Q172 117 212 92Q252 68 308 68ZM280 739Q297 744 304 754Q311 763 311 778Q311 796 296 806Q280 817 254 817Q241 817 228 814Q216 810 206 803L178 860Q195 871 214 876Q232 881 259 881Q294 881 319 869Q344 857 358 836Q371 814 371 787Q371 751 354 731Q338 711 307 696ZM306 579Q264 579 232 597Q200 615 182 646Q163 678 163 718H232Q231 699 239 681Q247 663 264 650Q281 638 306 638Q334 638 350 650Q367 663 374 681Q381 699 380 718H450Q450 678 432 646Q413 615 381 597Q349 579 306 579Z"/></g>
<text x="548.0" y="588" text-anchor="middle" font-family="system-ui,sans-serif" font-size="6.5" fill="#6b7681">uni1EB3.ss01</text>
<g data-glyph="uni1EB5" fill="#6b7681" opacity="0.35" transform="translate(28.57 652.72) scale(0.055 -0.055)"><path d="M226 -13Q172 -13 132 7Q93 27 72 61Q50 95 50 138Q50 190 79 224Q108 259 164 278Q219 298 298 302L416 310L400 296V338Q400 388 365 418Q330 448 271 448Q222 448 184 429Q145 410 113 373L54 433Q98 482 150 505Q201 528 273 528Q338 528 386 504Q435 480 462 437Q488 394 488 336V120Q488 90 488 60Q488 30 488 0H404Q404 20 404 39Q404 58 404 77H398Q387 58 366 37Q346 16 312 2Q278 -13 226 -13ZM241 63Q291 63 326 84Q362 104 381 138Q400 173 400 214V255L413 238L304 231Q219 226 178 204Q138 182 138 141Q138 116 150 98Q161 81 184 72Q207 63 241 63ZM270 579Q229 579 196 597Q164 615 146 646Q127 678 127 718H196Q195 699 203 681Q211 663 228 650Q246 638 270 638Q298 638 314 650Q331 663 338 681Q345 699 344 718H414Q414 678 396 646Q377 615 345 597Q313 579 270 579ZM345 754Q311 754 292 764Q272 775 260 790Q248 804 236 814Q225 825 208 825Q189 825 177 813Q165 801 165 773H114Q114 827 140 857Q165 887 207 887Q240 887 260 876Q279 866 292 852Q304 837 316 826Q327 816 345 816Q362 816 372 829Q383 842 383 868H438Q438 814 412 784Q386 754 345 754Z"/></g>
<g data-glyph="uni1EB5.ss01" fill="#03aee9" opacity="1" transform="translate(26.15 652.72) scale(0.055 -0.055)"><path d="M299 -13Q244 -13 196 6Q149 26 114 62Q80 98 60 148Q41 197 41 257Q41 317 60 366Q80 416 114 452Q149 488 196 508Q244 527 299 527Q345 527 380 514Q414 500 440 476Q466 453 482 421H487V516H570V0H487V99H482Q466 67 442 41Q417 15 382 1Q347 -13 299 -13ZM308 68Q362 68 402 93Q443 118 465 161Q487 204 487 257Q487 307 465 350Q443 394 402 420Q362 446 308 446Q252 446 212 422Q172 397 150 355Q128 313 128 257Q128 203 150 160Q172 117 212 92Q252 68 308 68ZM306 579Q265 579 232 597Q200 615 182 646Q163 678 163 718H232Q231 699 239 681Q247 663 264 650Q282 638 306 638Q334 638 350 650Q367 663 374 681Q381 699 380 718H450Q450 678 432 646Q413 615 381 597Q349 579 306 579ZM381 754Q347 754 328 764Q308 775 296 790Q284 804 272 814Q261 825 244 825Q225 825 213 813Q201 801 201 773H150Q150 827 176 857Q201 887 243 887Q276 887 296 876Q315 866 328 852Q340 837 352 826Q363 816 381 816Q398 816 408 829Q419 842 419 868H474Q474 814 448 784Q422 754 381 754Z"/></g>
<text x="44.0" y="680" text-anchor="middle" font-family="system-ui,sans-serif" font-size="6.5" fill="#6b7681">uni1EB5.ss01</text>
<g data-glyph="uni1EB5.rcltA11y" fill="#6b7681" opacity="0.35" transform="translate(100.24 652.72) scale(0.055 -0.055)"><path d="M230 -13Q174 -13 134 7Q93 27 72 62Q50 96 50 141Q50 218 114 258Q178 297 297 301L416 307L400 295V338Q400 388 364 418Q329 448 269 448Q222 448 184 429Q145 410 113 373L54 433Q97 482 148 505Q198 528 264 528Q334 528 384 504Q434 480 461 437Q488 394 488 336V127Q488 100 500 86Q511 72 528 70Q545 67 562 73V-4Q543 -13 520 -14Q496 -14 474 -5Q451 4 434 24Q416 44 410 77H405Q392 58 370 37Q348 16 314 2Q280 -13 230 -13ZM239 63Q290 63 326 84Q363 104 382 138Q400 173 400 214V255L413 235L304 230Q219 226 178 206Q138 185 138 142Q138 116 150 98Q161 81 184 72Q206 63 239 63ZM270 579Q229 579 196 597Q164 615 146 646Q127 678 127 718H196Q195 699 203 681Q211 663 228 650Q246 638 270 638Q298 638 314 650Q331 663 338 681Q345 699 344 718H414Q414 678 396 646Q377 615 345 597Q313 579 270 579ZM345 754Q311 754 292 764Q272 775 260 790Q248 804 236 814Q225 825 208 825Q189 825 177 813Q165 801 165 773H114Q114 827 140 857Q165 887 207 887Q240 887 260 876Q279 866 292 852Q304 837 316 826Q327 816 345 816Q362 816 372 829Q383 842 383 868H438Q438 814 412 784Q386 754 345 754Z"/></g>
<g data-glyph="uni1EB5.ss01" fill="#03aee9" opacity="1" transform="translate(98.15 652.72) scale(0.055 -0.055)"><path d="M299 -13Q244 -13 196 6Q149 26 114 62Q80 98 60 148Q41 197 41 257Q41 317 60 366Q80 416 114 452Q149 488 196 508Q244 527 299 527Q345 527 380 514Q414 500 440 476Q466 453 482 421H487V516H570V0H487V99H482Q466 67 442 41Q417 15 382 1Q347 -13 299 -13ZM308 68Q362 68 402 93Q443 118 465 161Q487 204 487 257Q487 307 465 350Q443 394 402 420Q362 446 308 446Q252 446 212 422Q172 397 150 355Q128 313 128 257Q128 203 150 160Q172 117 212 92Q252 68 308 68ZM306 579Q265 579 232 597Q200 615 182 646Q163 678 163 718H232Q231 699 239 681Q247 663 264 650Q282 638 306 638Q334 638 350 650Q367 663 374 681Q381 699 380 718H450Q450 678 432 646Q413 615 381 597Q349 579 306 579ZM381 754Q347 754 328 764Q308 775 296 790Q284 804 272 814Q261 825 244 825Q225 825 213 813Q201 801 201 773H150Q150 827 176 857Q201 887 243 887Q276 887 296 876Q315 866 328 852Q340 837 352 826Q363 816 381 816Q398 816 408 829Q419 842 419 868H474Q474 814 448 784Q422 754 381 754Z"/></g>
<text x="116.0" y="680" text-anchor="middle" font-family="system-ui,sans-serif" font-size="6.5" fill="#6b7681">uni1EB5.ss01</text>
<g data-glyph="uni1EB7" fill="#6b7681" opacity="0.35" transform="translate(172.57 652.72) scale(0.055 -0.055)"><path d="M226 -13Q172 -13 132 7Q93 27 72 61Q50 95 50 138Q50 190 79 224Q108 259 164 278Q219 298 298 302L416 310L400 296V338Q400 388 365 418Q330 448 271 448Q222 448 184 429Q145 410 113 373L54 433Q98 482 150 505Q201 528 273 528Q338 528 386 504Q435 480 462 437Q488 394 488 336V120Q488 90 488 60Q488 30 488 0H404Q404 20 404 39Q404 58 404 77H398Q387 58 366 37Q346 16 312 2Q278 -13 226 -13ZM241 63Q291 63 326 84Q362 104 381 138Q400 173 400 214V255L413 238L304 231Q219 226 178 204Q138 182 138 141Q138 116 150 98Q161 81 184 72Q207 63 241 63ZM268 -152Q243 -152 226 -136Q210 -119 210 -96Q210 -73 226 -56Q243 -40 268 -40Q292 -40 308 -56Q324 -73 324 -96Q324 -119 308 -136Q292 -152 268 -152ZM270 579Q229 579 196 597Q164 615 146 646Q127 678 127 718H196Q195 699 203 681Q211 663 228 650Q246 638 270 638Q298 638 314 650Q331 663 338 681Q345 699 344 718H414Q414 678 396 646Q377 615 345 597Q313 579 270 579Z"/></g>
<g data-glyph="uni1EB7.ss01" fill="#03aee9" opacity="1" transform="translate(170.15 652.72) scale(0.055 -0.055)"><path d="M299 -13Q244 -13 196 6Q149 26 114 62Q80 98 60 148Q41 197 41 257Q41 317 60 366Q80 416 114 452Q149 488 196 508Q244 527 299 527Q345 527 380 514Q414 500 440 476Q466 453 482 421H487V516H570V0H487V99H482Q466 67 442 41Q417 15 382 1Q347 -13 299 -13ZM308 68Q362 68 402 93Q443 118 465 161Q487 204 487 257Q487 307 465 350Q443 394 402 420Q362 446 308 446Q252 446 212 422Q172 397 150 355Q128 313 128 257Q128 203 150 160Q172 117 212 92Q252 68 308 68ZM311 -152Q286 -152 270 -136Q253 -119 253 -96Q253 -73 270 -56Q286 -40 311 -40Q335 -40 351 -56Q367 -73 367 -96Q367 -119 351 -136Q335 -152 311 -152ZM306 579Q265 579 232 597Q200 615 182 646Q163 678 163 718H232Q231 699 239 681Q247 663 264 650Q282 638 306 638Q334 638 350 650Q367 663 374 681Q381 699 380 718H450Q450 678 432 646Q413 615 381 597Q349 579 306 579Z"/></g>
<text x="188.0" y="680" text-anchor="middle" font-family="system-ui,sans-serif" font-size="6.5" fill="#6b7681">uni1EB7.ss01</text>
<g data-glyph="uni1EB7.rcltA11y" fill="#6b7681" opacity="0.35" transform="translate(244.24 652.72) scale(0.055 -0.055)"><path d="M230 -13Q174 -13 134 7Q93 27 72 62Q50 96 50 141Q50 218 114 258Q178 297 297 301L416 307L400 295V338Q400 388 364 418Q329 448 269 448Q222 448 184 429Q145 410 113 373L54 433Q97 482 148 505Q198 528 264 528Q334 528 384 504Q434 480 461 437Q488 394 488 336V127Q488 100 500 86Q511 72 528 70Q545 67 562 73V-4Q543 -13 520 -14Q496 -14 474 -5Q451 4 434 24Q416 44 410 77H405Q392 58 370 37Q348 16 314 2Q280 -13 230 -13ZM239 63Q290 63 326 84Q363 104 382 138Q400 173 400 214V255L413 235L304 230Q219 226 178 206Q138 185 138 142Q138 116 150 98Q161 81 184 72Q206 63 239 63ZM268 -152Q243 -152 226 -136Q210 -119 210 -96Q210 -73 226 -56Q243 -40 268 -40Q292 -40 308 -56Q324 -73 324 -96Q324 -119 308 -136Q292 -152 268 -152ZM270 579Q229 579 196 597Q164 615 146 646Q127 678 127 718H196Q195 699 203 681Q211 663 228 650Q246 638 270 638Q298 638 314 650Q331 663 338 681Q345 699 344 718H414Q414 678 396 646Q377 615 345 597Q313 579 270 579Z"/></g>
<g data-glyph="uni1EB7.ss01" fill="#03aee9" opacity="1" transform="translate(242.15 652.72) scale(0.055 -0.055)"><path d="M299 -13Q244 -13 196 6Q149 26 114 62Q80 98 60 148Q41 197 41 257Q41 317 60 366Q80 416 114 452Q149 488 196 508Q244 527 299 527Q345 527 380 514Q414 500 440 476Q466 453 482 421H487V516H570V0H487V99H482Q466 67 442 41Q417 15 382 1Q347 -13 299 -13ZM308 68Q362 68 402 93Q443 118 465 161Q487 204 487 257Q487 307 465 350Q443 394 402 420Q362 446 308 446Q252 446 212 422Q172 397 150 355Q128 313 128 257Q128 203 150 160Q172 117 212 92Q252 68 308 68ZM311 -152Q286 -152 270 -136Q253 -119 253 -96Q253 -73 270 -56Q286 -40 311 -40Q335 -40 351 -56Q367 -73 367 -96Q367 -119 351 -136Q335 -152 311 -152ZM306 579Q265 579 232 597Q200 615 182 646Q163 678 163 718H232Q231 699 239 681Q247 663 264 650Q282 638 306 638Q334 638 350 650Q367 663 374 681Q381 699 380 718H450Q450 678 432 646Q413 615 381 597Q349 579 306 579Z"/></g>
<text x="260.0" y="680" text-anchor="middle" font-family="system-ui,sans-serif" font-size="6.5" fill="#6b7681">uni1EB7.ss01</text>
</svg>
