<?xml version="1.0" encoding="UTF-8" standalone="no"?>
<svg height="160" viewBox="0 0 128 160" width="128" xmlns="http://www.w3.org/2000/svg">
<defs>
<path d="M87 0V-360V-720H176V0ZM88 0V-78H175V0ZM88 -642V-720H175V-642ZM95 -757Q118 -773 128 -789Q139 -805 139 -821Q139 -841 126 -852Q113 -863 91 -863Q78 -863 66 -859Q54 -855 47 -847L14 -896Q25 -904 44 -913Q64 -922 95 -922Q128 -922 152 -910Q177 -897 190 -876Q203 -854 203 -827Q203 -799 190 -782Q178 -764 169 -757Z" id="path1"/>
</defs>
<g>
<g data-glyph="uni1EC8" fill="#20242e" transform="translate(51.42400 104.99201) rotate(0) scale(0.096)">
<use href="#path1"/>
</g>
</g>
</svg>
