<?xml version="1.0" encoding="UTF-8"?>
<svg id="b" data-name="Layer 2" xmlns="http://www.w3.org/2000/svg" viewBox="0 0 2001.90842 400">
  <defs>
    <style>
      .d {
        fill: #231f20;
      }
    </style>
  </defs>
  <g id="c" data-name="Layer 4">
    <path class="d" d="M459.99995,400L229.999953,0,0,400h459.99995ZM691.979936,381.790777L884.193024,18.181924h-83.138451l-132.59383,264.065003L535.867676,18.181924h-83.140799l192.213851,363.608854h47.039208ZM2001.90842,18.181924v363.609617h-68.830754V18.181924h68.830754ZM1618.769968,246.076921c0-28.336921,5.915363-53.260774,17.746089-74.770003,11.830843-21.509229,28.32313-38.068463,49.476976-49.676147,21.146099-11.608461,45.884587-17.41231,74.207717-17.41231,25.092257,0,47.676908,5.462309,67.753836,16.38769,20.069181,10.925388,36.023067,27.143075,47.853793,48.652304,11.830843,21.509244,17.923091,47.798465,18.284607,78.867707v15.875391h-202.72299c1.430688,22.533828,8.061453,40.287663,19.892296,53.261537,12.192242,12.632282,28.500014,18.948452,48.938458,18.948452,12.900015,0,24.730741-3.413861,35.484549-10.242315,10.753925-6.828455,18.823125-16.046906,24.200087-27.655381l70.446073,5.121554c-8.6076,25.606126-24.73837,46.09152-48.39994,61.45536-23.661569,15.363869-50.907663,23.045408-81.730769,23.045408-28.32313,0-53.061617-5.803856-74.207717-17.412332-21.153846-11.607684-37.646132-28.166903-49.476976-49.676132-11.830726-21.509229-17.746089-46.433082-17.746089-74.770781ZM1823.108394,220.470766c-2.507723-22.192309-9.500005-38.409233-20.969215-48.651534-11.46921-10.583848-25.45389-15.876154-41.93843-15.876154-19.000009,0-34.415377,5.633075-46.246221,16.900004-11.830726,11.266914-19.184523,27.143068-22.046133,47.627684h131.199998ZM1502.654574,171.819232c11.46921,9.217688,18.638493,22.021543,21.507733,38.409233l70.984591-3.584612c-2.515353-20.826927-9.861521-38.921547-22.046133-54.285387-12.192359-15.363855-27.969243-27.143082-47.323139-35.336927-19.000009-8.535385-39.969224-12.803078-62.915391-12.803078-28.323012,0-53.053871,5.803849-74.207717,17.41231-21.153846,11.607684-37.638385,28.166918-49.469229,49.676147-11.830726,21.509229-17.746089,46.433082-17.746089,74.770003,0,28.337699,5.915363,53.261551,17.746089,74.770781,11.830843,21.509229,28.315383,38.068449,49.469229,49.676132,21.153846,11.608476,45.884705,17.412332,74.207717,17.412332,23.661569,0,45.169302-4.267707,64.530827-12.803092,19.353779-8.876918,35.13078-21.338448,47.315392-37.385383,12.192242-16.046143,19.53841-34.824606,22.046133-56.333835l-71.515362-3.072328c-2.507723,18.094635-9.500005,32.093077-20.969215,41.99386-11.476957,9.559983-25.277006,14.340005-41.407776,14.340005-22.223018,0-39.430706-7.682301-51.623066-23.046171-12.184613-15.36384-18.284607-37.214602-18.284607-65.552301,0-28.336921,6.099994-50.187698,18.284607-65.551538,12.192359-15.36384,29.400048-23.046156,51.623066-23.046156,15.415368,0,28.676899,4.780006,39.79234,14.340005ZM1153.485357,110.35154h64.046185l1.853825,52.239998c4.54618-14.786926,10.869188-26.270001,18.969257-34.449225,11.738469-11.860774,28.107628-17.790772,49.099966-17.790772h26.153799v55.914607h-26.68457c-14.946219,0-27.223088,2.033087-36.830726,6.099231-9.253869,4.066922-16.369277,10.505383-21.346224,19.31616-4.630808,8.810762-6.938406,19.993841-6.938406,33.548458v156.56078h-68.323106V110.35154ZM858.046854,171.306918c-11.830726,21.509229-17.746148,46.433082-17.746148,74.770003,0,28.337699,5.915422,53.261551,17.746148,74.770781,11.830785,21.509229,28.315383,38.068449,49.469229,49.676132,21.153846,11.608476,45.884646,17.412332,74.207717,17.412332,30.830794,0,58.076888-7.681539,81.738457-23.045408,23.653823-15.36384,39.79234-35.849234,48.392311-61.45536l-70.44619-5.121554c-5.376845,11.608476-13.438416,20.826927-24.192223,27.655381-10.753925,6.828455-22.584651,10.242315-35.492354,10.242315-20.430756,0-36.746157-6.31617-48.93077-18.948452-11.830785-12.973873-18.46155-30.727709-19.899985-53.261537h202.723048v-15.875391c-.353887-31.069242-6.446134-57.358463-18.27686-78.867707-11.830843-21.509229-27.784612-37.726916-47.861539-48.652304-20.076928-10.925381-42.661579-16.38769-67.753895-16.38769-28.323071,0-53.053871,5.803849-74.207717,17.41231-21.153846,11.607684-37.638444,28.166918-49.469229,49.676147ZM1023.669918,171.819232c11.469327,10.242301,18.461609,26.459224,20.969215,48.651534h-131.207628c2.869239-20.484616,10.215348-36.36077,22.046133-47.627684,11.830785-11.266928,27.246152-16.900004,46.246162-16.900004,16.492345,0,30.469278,5.292306,41.946118,15.876154Z"/>
  </g>
</svg>